<?xml version="1.0" encoding="UTF-8" standalone="no"?>
<!DOCTYPE svg PUBLIC "-//W3C//DTD SVG 1.1//EN"
 "http://www.w3.org/Graphics/SVG/1.1/DTD/svg11.dtd">
<!-- Generated by graphviz version 2.40.1 (20161225.0304)
 -->
<!-- Title: diff_Contract_0xdb6f50cf0c521a98b6852839aa5cbea4e2430052 Pages: 1 -->
<svg width="4400pt" height="1628pt"
 viewBox="0.00 0.00 4400.00 1628.00" xmlns="http://www.w3.org/2000/svg" xmlns:xlink="http://www.w3.org/1999/xlink">
<g id="graph0" class="graph" transform="scale(1 1) rotate(0) translate(4 1624)">
<title>diff_Contract_0xdb6f50cf0c521a98b6852839aa5cbea4e2430052</title>
<polygon fill="#ffffff" stroke="transparent" points="-4,4 -4,-1624 4396,-1624 4396,4 -4,4"/>
<!-- 0 -->
<g id="node1" class="node">
<title>0</title>
<ellipse fill="none" stroke="#000000" cx="157" cy="-1602" rx="27" ry="18"/>
<text text-anchor="middle" x="157" y="-1598.3" font-family="Times,serif" font-size="14.00" fill="#000000">0</text>
</g>
<!-- 12 -->
<g id="node5" class="node">
<title>12</title>
<ellipse fill="none" stroke="#ff0000" cx="121" cy="-1530" rx="27" ry="18"/>
<text text-anchor="middle" x="121" y="-1526.3" font-family="Times,serif" font-size="14.00" fill="#000000">12</text>
</g>
<!-- 0&#45;&gt;12 -->
<g id="edge29" class="edge">
<title>0&#45;&gt;12</title>
<path fill="none" stroke="#ff0000" d="M148.2854,-1584.5708C144.0403,-1576.0807 138.8464,-1565.6929 134.1337,-1556.2674"/>
<polygon fill="#ff0000" stroke="#ff0000" points="137.237,-1554.6477 129.6343,-1547.2687 130.976,-1557.7782 137.237,-1554.6477"/>
</g>
<!-- 16 -->
<g id="node7" class="node">
<title>16</title>
<ellipse fill="none" stroke="#ff0000" cx="193" cy="-1530" rx="27" ry="18"/>
<text text-anchor="middle" x="193" y="-1526.3" font-family="Times,serif" font-size="14.00" fill="#000000">16</text>
</g>
<!-- 0&#45;&gt;16 -->
<g id="edge7" class="edge">
<title>0&#45;&gt;16</title>
<path fill="none" stroke="#ff0000" d="M165.7146,-1584.5708C169.9597,-1576.0807 175.1536,-1565.6929 179.8663,-1556.2674"/>
<polygon fill="#ff0000" stroke="#ff0000" points="183.024,-1557.7782 184.3657,-1547.2687 176.763,-1554.6477 183.024,-1557.7782"/>
</g>
<!-- 131 -->
<g id="node2" class="node">
<title>131</title>
<ellipse fill="none" stroke="#ff0000" cx="157" cy="-1386" rx="27" ry="18"/>
<text text-anchor="middle" x="157" y="-1382.3" font-family="Times,serif" font-size="14.00" fill="#000000">131</text>
</g>
<!-- 143 -->
<g id="node6" class="node">
<title>143</title>
<ellipse fill="none" stroke="#ff0000" cx="121" cy="-1314" rx="27" ry="18"/>
<text text-anchor="middle" x="121" y="-1310.3" font-family="Times,serif" font-size="14.00" fill="#000000">143</text>
</g>
<!-- 131&#45;&gt;143 -->
<g id="edge1" class="edge">
<title>131&#45;&gt;143</title>
<path fill="none" stroke="#ff0000" d="M148.2854,-1368.5708C144.0403,-1360.0807 138.8464,-1349.6929 134.1337,-1340.2674"/>
<polygon fill="#ff0000" stroke="#ff0000" points="137.237,-1338.6477 129.6343,-1331.2687 130.976,-1341.7782 137.237,-1338.6477"/>
</g>
<!-- 154 -->
<g id="node12" class="node">
<title>154</title>
<ellipse fill="none" stroke="#ff0000" cx="193" cy="-1314" rx="27" ry="18"/>
<text text-anchor="middle" x="193" y="-1310.3" font-family="Times,serif" font-size="14.00" fill="#000000">154</text>
</g>
<!-- 131&#45;&gt;154 -->
<g id="edge38" class="edge">
<title>131&#45;&gt;154</title>
<path fill="none" stroke="#ff0000" d="M165.7146,-1368.5708C169.9597,-1360.0807 175.1536,-1349.6929 179.8663,-1340.2674"/>
<polygon fill="#ff0000" stroke="#ff0000" points="183.024,-1341.7782 184.3657,-1331.2687 176.763,-1338.6477 183.024,-1341.7782"/>
</g>
<!-- 1287 -->
<g id="node3" class="node">
<title>1287</title>
<ellipse fill="none" stroke="#ff0000" cx="118" cy="-1098" rx="28.6953" ry="18"/>
<text text-anchor="middle" x="118" y="-1094.3" font-family="Times,serif" font-size="14.00" fill="#000000">1287</text>
</g>
<!-- 181 -->
<g id="node23" class="node">
<title>181</title>
<ellipse fill="none" stroke="#ff0000" cx="118" cy="-1026" rx="27" ry="18"/>
<text text-anchor="middle" x="118" y="-1022.3" font-family="Times,serif" font-size="14.00" fill="#000000">181</text>
</g>
<!-- 1287&#45;&gt;181 -->
<g id="edge46" class="edge">
<title>1287&#45;&gt;181</title>
<path fill="none" stroke="#ff0000" d="M118,-1079.8314C118,-1072.131 118,-1062.9743 118,-1054.4166"/>
<polygon fill="#ff0000" stroke="#ff0000" points="121.5001,-1054.4132 118,-1044.4133 114.5001,-1054.4133 121.5001,-1054.4132"/>
</g>
<!-- 1415 -->
<g id="node4" class="node">
<title>1415</title>
<ellipse fill="none" stroke="#ff0000" cx="227" cy="-162" rx="28.6953" ry="18"/>
<text text-anchor="middle" x="227" y="-158.3" font-family="Times,serif" font-size="14.00" fill="#000000">1415</text>
</g>
<!-- 1406 -->
<g id="node48" class="node">
<title>1406</title>
<ellipse fill="none" stroke="#ff0000" cx="227" cy="-234" rx="28.6953" ry="18"/>
<text text-anchor="middle" x="227" y="-230.3" font-family="Times,serif" font-size="14.00" fill="#000000">1406</text>
</g>
<!-- 1415&#45;&gt;1406 -->
<g id="edge11" class="edge">
<title>1415&#45;&gt;1406</title>
<path fill="none" stroke="#ff0000" d="M232.9202,-179.8425C233.7078,-187.7236 233.9348,-197.1774 233.601,-205.9647"/>
<polygon fill="#ff0000" stroke="#ff0000" points="230.0915,-205.9908 232.9157,-216.2022 237.0759,-206.4583 230.0915,-205.9908"/>
</g>
<!-- 35 -->
<g id="node18" class="node">
<title>35</title>
<ellipse fill="none" stroke="#ff0000" cx="193" cy="-1458" rx="27" ry="18"/>
<text text-anchor="middle" x="193" y="-1454.3" font-family="Times,serif" font-size="14.00" fill="#000000">35</text>
</g>
<!-- 16&#45;&gt;35 -->
<g id="edge2" class="edge">
<title>16&#45;&gt;35</title>
<path fill="none" stroke="#ff0000" d="M193,-1511.8314C193,-1504.131 193,-1494.9743 193,-1486.4166"/>
<polygon fill="#ff0000" stroke="#ff0000" points="196.5001,-1486.4132 193,-1476.4133 189.5001,-1486.4133 196.5001,-1486.4132"/>
</g>
<!-- 1553 -->
<g id="node8" class="node">
<title>1553</title>
<ellipse fill="none" stroke="#ff0000" cx="302" cy="-162" rx="28.6953" ry="18"/>
<text text-anchor="middle" x="302" y="-158.3" font-family="Times,serif" font-size="14.00" fill="#000000">1553</text>
</g>
<!-- 1594 -->
<g id="node25" class="node">
<title>1594</title>
<ellipse fill="none" stroke="#ff0000" cx="302" cy="-90" rx="28.6953" ry="18"/>
<text text-anchor="middle" x="302" y="-86.3" font-family="Times,serif" font-size="14.00" fill="#000000">1594</text>
</g>
<!-- 1553&#45;&gt;1594 -->
<g id="edge44" class="edge">
<title>1553&#45;&gt;1594</title>
<path fill="none" stroke="#ff0000" d="M302,-143.8314C302,-136.131 302,-126.9743 302,-118.4166"/>
<polygon fill="#ff0000" stroke="#ff0000" points="305.5001,-118.4132 302,-108.4133 298.5001,-118.4133 305.5001,-118.4132"/>
</g>
<!-- 1301 -->
<g id="node9" class="node">
<title>1301</title>
<ellipse fill="none" stroke="#ff0000" cx="227" cy="-378" rx="28.6953" ry="18"/>
<text text-anchor="middle" x="227" y="-374.3" font-family="Times,serif" font-size="14.00" fill="#000000">1301</text>
</g>
<!-- 1311 -->
<g id="node16" class="node">
<title>1311</title>
<ellipse fill="none" stroke="#ff0000" cx="227" cy="-306" rx="28.6953" ry="18"/>
<text text-anchor="middle" x="227" y="-302.3" font-family="Times,serif" font-size="14.00" fill="#000000">1311</text>
</g>
<!-- 1301&#45;&gt;1311 -->
<g id="edge22" class="edge">
<title>1301&#45;&gt;1311</title>
<path fill="none" stroke="#ff0000" d="M227,-359.8314C227,-352.131 227,-342.9743 227,-334.4166"/>
<polygon fill="#ff0000" stroke="#ff0000" points="230.5001,-334.4132 227,-324.4133 223.5001,-334.4133 230.5001,-334.4132"/>
</g>
<!-- 280 -->
<g id="node10" class="node">
<title>280</title>
<ellipse fill="none" stroke="#ff0000" cx="226" cy="-738" rx="27" ry="18"/>
<text text-anchor="middle" x="226" y="-734.3" font-family="Times,serif" font-size="14.00" fill="#000000">280</text>
</g>
<!-- 285 -->
<g id="node14" class="node">
<title>285</title>
<ellipse fill="none" stroke="#ff0000" cx="298" cy="-666" rx="27" ry="18"/>
<text text-anchor="middle" x="298" y="-662.3" font-family="Times,serif" font-size="14.00" fill="#000000">285</text>
</g>
<!-- 280&#45;&gt;285 -->
<g id="edge47" class="edge">
<title>280&#45;&gt;285</title>
<path fill="none" stroke="#ff0000" d="M241.2693,-722.7307C251.197,-712.803 264.3153,-699.6847 275.4363,-688.5637"/>
<polygon fill="#ff0000" stroke="#ff0000" points="278.1564,-690.7933 282.7527,-681.2473 273.2067,-685.8436 278.1564,-690.7933"/>
</g>
<!-- 25 -->
<g id="node11" class="node">
<title>25</title>
<ellipse fill="none" stroke="#ff0000" cx="227" cy="-450" rx="27" ry="18"/>
<text text-anchor="middle" x="227" y="-446.3" font-family="Times,serif" font-size="14.00" fill="#000000">25</text>
</g>
<!-- 25&#45;&gt;1301 -->
<g id="edge37" class="edge">
<title>25&#45;&gt;1301</title>
<path fill="none" stroke="#ff0000" d="M227,-431.8314C227,-424.131 227,-414.9743 227,-406.4166"/>
<polygon fill="#ff0000" stroke="#ff0000" points="230.5001,-406.4132 227,-396.4133 223.5001,-406.4133 230.5001,-406.4132"/>
</g>
<!-- 1246 -->
<g id="node35" class="node">
<title>1246</title>
<ellipse fill="none" stroke="#ff0000" cx="193" cy="-1242" rx="28.6953" ry="18"/>
<text text-anchor="middle" x="193" y="-1238.3" font-family="Times,serif" font-size="14.00" fill="#000000">1246</text>
</g>
<!-- 154&#45;&gt;1246 -->
<g id="edge8" class="edge">
<title>154&#45;&gt;1246</title>
<path fill="none" stroke="#ff0000" d="M193,-1295.8314C193,-1288.131 193,-1278.9743 193,-1270.4166"/>
<polygon fill="#ff0000" stroke="#ff0000" points="196.5001,-1270.4132 193,-1260.4133 189.5001,-1270.4133 196.5001,-1270.4132"/>
</g>
<!-- 540 -->
<g id="node13" class="node">
<title>540</title>
<ellipse fill="none" stroke="#ff0000" cx="99" cy="-162" rx="27" ry="18"/>
<text text-anchor="middle" x="99" y="-158.3" font-family="Times,serif" font-size="14.00" fill="#000000">540</text>
</g>
<!-- 546 -->
<g id="node17" class="node">
<title>546</title>
<ellipse fill="none" stroke="#ff0000" cx="99" cy="-90" rx="27" ry="18"/>
<text text-anchor="middle" x="99" y="-86.3" font-family="Times,serif" font-size="14.00" fill="#000000">546</text>
</g>
<!-- 540&#45;&gt;546 -->
<g id="edge5" class="edge">
<title>540&#45;&gt;546</title>
<path fill="none" stroke="#ff0000" d="M99,-143.8314C99,-136.131 99,-126.9743 99,-118.4166"/>
<polygon fill="#ff0000" stroke="#ff0000" points="102.5001,-118.4132 99,-108.4133 95.5001,-118.4133 102.5001,-118.4132"/>
</g>
<!-- 557 -->
<g id="node21" class="node">
<title>557</title>
<ellipse fill="none" stroke="#ff0000" cx="27" cy="-90" rx="27" ry="18"/>
<text text-anchor="middle" x="27" y="-86.3" font-family="Times,serif" font-size="14.00" fill="#000000">557</text>
</g>
<!-- 540&#45;&gt;557 -->
<g id="edge12" class="edge">
<title>540&#45;&gt;557</title>
<path fill="none" stroke="#ff0000" d="M83.7307,-146.7307C73.803,-136.803 60.6847,-123.6847 49.5637,-112.5637"/>
<polygon fill="#ff0000" stroke="#ff0000" points="51.7933,-109.8436 42.2473,-105.2473 46.8436,-114.7933 51.7933,-109.8436"/>
</g>
<!-- 1089 -->
<g id="node28" class="node">
<title>1089</title>
<ellipse fill="none" stroke="#ff0000" cx="298" cy="-594" rx="28.6953" ry="18"/>
<text text-anchor="middle" x="298" y="-590.3" font-family="Times,serif" font-size="14.00" fill="#000000">1089</text>
</g>
<!-- 285&#45;&gt;1089 -->
<g id="edge21" class="edge">
<title>285&#45;&gt;1089</title>
<path fill="none" stroke="#ff0000" d="M298,-647.8314C298,-640.131 298,-630.9743 298,-622.4166"/>
<polygon fill="#ff0000" stroke="#ff0000" points="301.5001,-622.4132 298,-612.4133 294.5001,-622.4133 301.5001,-622.4132"/>
</g>
<!-- 1309 -->
<g id="node15" class="node">
<title>1309</title>
<ellipse fill="none" stroke="#ff0000" cx="231" cy="-1602" rx="28.6953" ry="18"/>
<text text-anchor="middle" x="231" y="-1598.3" font-family="Times,serif" font-size="14.00" fill="#000000">1309</text>
</g>
<!-- 1311&#45;&gt;1406 -->
<g id="edge26" class="edge">
<title>1311&#45;&gt;1406</title>
<path fill="none" stroke="#ff0000" d="M227,-287.8314C227,-280.131 227,-270.9743 227,-262.4166"/>
<polygon fill="#ff0000" stroke="#ff0000" points="230.5001,-262.4132 227,-252.4133 223.5001,-262.4133 230.5001,-262.4132"/>
</g>
<!-- 35&#45;&gt;131 -->
<g id="edge27" class="edge">
<title>35&#45;&gt;131</title>
<path fill="none" stroke="#ff0000" d="M184.2854,-1440.5708C180.0403,-1432.0807 174.8464,-1421.6929 170.1337,-1412.2674"/>
<polygon fill="#ff0000" stroke="#ff0000" points="173.237,-1410.6477 165.6343,-1403.2687 166.976,-1413.7782 173.237,-1410.6477"/>
</g>
<!-- 120 -->
<g id="node46" class="node">
<title>120</title>
<ellipse fill="none" stroke="#ff0000" cx="229" cy="-1386" rx="27" ry="18"/>
<text text-anchor="middle" x="229" y="-1382.3" font-family="Times,serif" font-size="14.00" fill="#000000">120</text>
</g>
<!-- 35&#45;&gt;120 -->
<g id="edge15" class="edge">
<title>35&#45;&gt;120</title>
<path fill="none" stroke="#ff0000" d="M201.7146,-1440.5708C205.9597,-1432.0807 211.1536,-1421.6929 215.8663,-1412.2674"/>
<polygon fill="#ff0000" stroke="#ff0000" points="219.024,-1413.7782 220.3657,-1403.2687 212.763,-1410.6477 219.024,-1413.7782"/>
</g>
<!-- 422 -->
<g id="node19" class="node">
<title>422</title>
<ellipse fill="none" stroke="#ff0000" cx="153" cy="-378" rx="27" ry="18"/>
<text text-anchor="middle" x="153" y="-374.3" font-family="Times,serif" font-size="14.00" fill="#000000">422</text>
</g>
<!-- 485 -->
<g id="node38" class="node">
<title>485</title>
<ellipse fill="none" stroke="#ff0000" cx="126" cy="-306" rx="27" ry="18"/>
<text text-anchor="middle" x="126" y="-302.3" font-family="Times,serif" font-size="14.00" fill="#000000">485</text>
</g>
<!-- 422&#45;&gt;485 -->
<g id="edge42" class="edge">
<title>422&#45;&gt;485</title>
<path fill="none" stroke="#ff0000" d="M146.3258,-360.2022C143.2524,-352.0064 139.5384,-342.1024 136.1305,-333.0145"/>
<polygon fill="#ff0000" stroke="#ff0000" points="139.3858,-331.7274 132.5974,-323.593 132.8315,-334.1853 139.3858,-331.7274"/>
</g>
<!-- 297 -->
<g id="node20" class="node">
<title>297</title>
<ellipse fill="none" stroke="#ff0000" cx="153" cy="-450" rx="27" ry="18"/>
<text text-anchor="middle" x="153" y="-446.3" font-family="Times,serif" font-size="14.00" fill="#000000">297</text>
</g>
<!-- 297&#45;&gt;422 -->
<g id="edge40" class="edge">
<title>297&#45;&gt;422</title>
<path fill="none" stroke="#ff0000" d="M153,-431.8314C153,-424.131 153,-414.9743 153,-406.4166"/>
<polygon fill="#ff0000" stroke="#ff0000" points="156.5001,-406.4132 153,-396.4133 149.5001,-406.4133 156.5001,-406.4132"/>
</g>
<!-- 297&#45;&gt;485 -->
<g id="edge24" class="edge">
<title>297&#45;&gt;485</title>
<path fill="none" stroke="#ff0000" d="M138.8771,-434.2844C130.7465,-424.1468 121.3099,-410.2347 117,-396 110.8377,-375.6472 113.7135,-351.6425 117.7896,-333.5448"/>
<polygon fill="#ff0000" stroke="#ff0000" points="121.2349,-334.1948 120.2691,-323.644 114.4446,-332.4942 121.2349,-334.1948"/>
</g>
<!-- 194 -->
<g id="node27" class="node">
<title>194</title>
<ellipse fill="none" stroke="#ff0000" cx="118" cy="-954" rx="27" ry="18"/>
<text text-anchor="middle" x="118" y="-950.3" font-family="Times,serif" font-size="14.00" fill="#000000">194</text>
</g>
<!-- 557&#45;&gt;194 -->
<g id="edge17" class="edge">
<title>557&#45;&gt;194</title>
<path fill="none" stroke="#ff0000" d="M27,-108.1854C27,-135.5017 27,-188.75 27,-234 27,-810 27,-810 27,-810 27,-859.7957 66.3674,-906.3828 93.316,-932.44"/>
<polygon fill="#ff0000" stroke="#ff0000" points="91.1959,-935.2503 100.8836,-939.5398 95.9854,-930.1452 91.1959,-935.2503"/>
</g>
<!-- 1069 -->
<g id="node22" class="node">
<title>1069</title>
<ellipse fill="none" stroke="#ff0000" cx="117" cy="-666" rx="28.6953" ry="18"/>
<text text-anchor="middle" x="117" y="-662.3" font-family="Times,serif" font-size="14.00" fill="#000000">1069</text>
</g>
<!-- 181&#45;&gt;194 -->
<g id="edge49" class="edge">
<title>181&#45;&gt;194</title>
<path fill="none" stroke="#ff0000" d="M118,-1007.8314C118,-1000.131 118,-990.9743 118,-982.4166"/>
<polygon fill="#ff0000" stroke="#ff0000" points="121.5001,-982.4132 118,-972.4133 114.5001,-982.4133 121.5001,-982.4132"/>
</g>
<!-- 1080 -->
<g id="node24" class="node">
<title>1080</title>
<ellipse fill="none" stroke="#ff0000" cx="192" cy="-666" rx="28.6953" ry="18"/>
<text text-anchor="middle" x="192" y="-662.3" font-family="Times,serif" font-size="14.00" fill="#000000">1080</text>
</g>
<!-- 588 -->
<g id="node32" class="node">
<title>588</title>
<ellipse fill="none" stroke="#ff0000" cx="192" cy="-594" rx="27" ry="18"/>
<text text-anchor="middle" x="192" y="-590.3" font-family="Times,serif" font-size="14.00" fill="#000000">588</text>
</g>
<!-- 1080&#45;&gt;588 -->
<g id="edge35" class="edge">
<title>1080&#45;&gt;588</title>
<path fill="none" stroke="#ff0000" d="M192,-647.8314C192,-640.131 192,-630.9743 192,-622.4166"/>
<polygon fill="#ff0000" stroke="#ff0000" points="195.5001,-622.4132 192,-612.4133 188.5001,-622.4133 195.5001,-622.4132"/>
</g>
<!-- 1603 -->
<g id="node29" class="node">
<title>1603</title>
<ellipse fill="none" stroke="#ff0000" cx="302" cy="-18" rx="28.6953" ry="18"/>
<text text-anchor="middle" x="302" y="-14.3" font-family="Times,serif" font-size="14.00" fill="#000000">1603</text>
</g>
<!-- 1594&#45;&gt;1603 -->
<g id="edge3" class="edge">
<title>1594&#45;&gt;1603</title>
<path fill="none" stroke="#ff0000" d="M296.0843,-72.2022C295.2945,-64.3271 295.0655,-54.875 295.3971,-46.0852"/>
<polygon fill="#ff0000" stroke="#ff0000" points="298.9069,-46.0532 296.0798,-35.8425 291.9224,-45.5876 298.9069,-46.0532"/>
</g>
<!-- 1779 -->
<g id="node43" class="node">
<title>1779</title>
<ellipse fill="none" stroke="#ff0000" cx="377" cy="-18" rx="28.6953" ry="18"/>
<text text-anchor="middle" x="377" y="-14.3" font-family="Times,serif" font-size="14.00" fill="#000000">1779</text>
</g>
<!-- 1594&#45;&gt;1779 -->
<g id="edge53" class="edge">
<title>1594&#45;&gt;1779</title>
<path fill="none" stroke="#ff0000" d="M317.9056,-74.7307C328.3463,-64.7075 342.1749,-51.4321 353.8298,-40.2434"/>
<polygon fill="#ff0000" stroke="#ff0000" points="356.3273,-42.6976 361.1174,-33.2473 351.4796,-37.6478 356.3273,-42.6976"/>
</g>
<!-- 577 -->
<g id="node26" class="node">
<title>577</title>
<ellipse fill="none" stroke="#ff0000" cx="118" cy="-882" rx="27" ry="18"/>
<text text-anchor="middle" x="118" y="-878.3" font-family="Times,serif" font-size="14.00" fill="#000000">577</text>
</g>
<!-- 629 -->
<g id="node44" class="node">
<title>629</title>
<ellipse fill="none" stroke="#ff0000" cx="118" cy="-810" rx="27" ry="18"/>
<text text-anchor="middle" x="118" y="-806.3" font-family="Times,serif" font-size="14.00" fill="#000000">629</text>
</g>
<!-- 577&#45;&gt;629 -->
<g id="edge45" class="edge">
<title>577&#45;&gt;629</title>
<path fill="none" stroke="#ff0000" d="M118,-863.8314C118,-856.131 118,-846.9743 118,-838.4166"/>
<polygon fill="#ff0000" stroke="#ff0000" points="121.5001,-838.4132 118,-828.4133 114.5001,-838.4133 121.5001,-838.4132"/>
</g>
<!-- 194&#45;&gt;577 -->
<g id="edge4" class="edge">
<title>194&#45;&gt;577</title>
<path fill="none" stroke="#ff0000" d="M118,-935.8314C118,-928.131 118,-918.9743 118,-910.4166"/>
<polygon fill="#ff0000" stroke="#ff0000" points="121.5001,-910.4132 118,-900.4133 114.5001,-910.4133 121.5001,-910.4132"/>
</g>
<!-- 204 -->
<g id="node31" class="node">
<title>204</title>
<ellipse fill="none" stroke="#ff0000" cx="240" cy="-882" rx="27" ry="18"/>
<text text-anchor="middle" x="240" y="-878.3" font-family="Times,serif" font-size="14.00" fill="#000000">204</text>
</g>
<!-- 194&#45;&gt;204 -->
<g id="edge9" class="edge">
<title>194&#45;&gt;204</title>
<path fill="none" stroke="#ff0000" d="M138.4201,-941.9488C158.2135,-930.2675 188.4393,-912.4293 210.7774,-899.2461"/>
<polygon fill="#ff0000" stroke="#ff0000" points="212.6801,-902.1873 219.5133,-894.0905 209.1223,-896.1589 212.6801,-902.1873"/>
</g>
<!-- 1235 -->
<g id="node34" class="node">
<title>1235</title>
<ellipse fill="none" stroke="#ff0000" cx="300" cy="-522" rx="28.6953" ry="18"/>
<text text-anchor="middle" x="300" y="-518.3" font-family="Times,serif" font-size="14.00" fill="#000000">1235</text>
</g>
<!-- 1089&#45;&gt;1235 -->
<g id="edge32" class="edge">
<title>1089&#45;&gt;1235</title>
<path fill="none" stroke="#ff0000" d="M298.5047,-575.8314C298.7186,-568.131 298.9729,-558.9743 299.2106,-550.4166"/>
<polygon fill="#ff0000" stroke="#ff0000" points="302.7094,-550.5066 299.4885,-540.4133 295.7121,-550.3122 302.7094,-550.5066"/>
</g>
<!-- 618 -->
<g id="node39" class="node">
<title>618</title>
<ellipse fill="none" stroke="#ff0000" cx="226" cy="-522" rx="27" ry="18"/>
<text text-anchor="middle" x="226" y="-518.3" font-family="Times,serif" font-size="14.00" fill="#000000">618</text>
</g>
<!-- 1089&#45;&gt;618 -->
<g id="edge13" class="edge">
<title>1089&#45;&gt;618</title>
<path fill="none" stroke="#ff0000" d="M282.7307,-578.7307C272.803,-568.803 259.6847,-555.6847 248.5637,-544.5637"/>
<polygon fill="#ff0000" stroke="#ff0000" points="250.7933,-541.8436 241.2473,-537.2473 245.8436,-546.7933 250.7933,-541.8436"/>
</g>
<!-- 1603&#45;&gt;1594 -->
<g id="edge52" class="edge">
<title>1603&#45;&gt;1594</title>
<path fill="none" stroke="#ff0000" d="M307.9202,-35.8425C308.7078,-43.7236 308.9348,-53.1774 308.601,-61.9647"/>
<polygon fill="#ff0000" stroke="#ff0000" points="305.0915,-61.9908 307.9157,-72.2022 312.0759,-62.4583 305.0915,-61.9908"/>
</g>
<!-- 840 -->
<g id="node30" class="node">
<title>840</title>
<ellipse fill="none" stroke="#ff0000" cx="82" cy="-738" rx="27" ry="18"/>
<text text-anchor="middle" x="82" y="-734.3" font-family="Times,serif" font-size="14.00" fill="#000000">840</text>
</g>
<!-- 241 -->
<g id="node42" class="node">
<title>241</title>
<ellipse fill="none" stroke="#ff0000" cx="240" cy="-810" rx="27" ry="18"/>
<text text-anchor="middle" x="240" y="-806.3" font-family="Times,serif" font-size="14.00" fill="#000000">241</text>
</g>
<!-- 204&#45;&gt;241 -->
<g id="edge33" class="edge">
<title>204&#45;&gt;241</title>
<path fill="none" stroke="#ff0000" d="M240,-863.8314C240,-856.131 240,-846.9743 240,-838.4166"/>
<polygon fill="#ff0000" stroke="#ff0000" points="243.5001,-838.4132 240,-828.4133 236.5001,-838.4133 243.5001,-838.4132"/>
</g>
<!-- 251 -->
<g id="node47" class="node">
<title>251</title>
<ellipse fill="none" stroke="#ff0000" cx="339" cy="-810" rx="27" ry="18"/>
<text text-anchor="middle" x="339" y="-806.3" font-family="Times,serif" font-size="14.00" fill="#000000">251</text>
</g>
<!-- 204&#45;&gt;251 -->
<g id="edge18" class="edge">
<title>204&#45;&gt;251</title>
<path fill="none" stroke="#ff0000" d="M258.6211,-868.4574C273.6935,-857.4956 295.1254,-841.9088 312.0687,-829.5864"/>
<polygon fill="#ff0000" stroke="#ff0000" points="314.4336,-832.1943 320.4624,-823.4819 310.3164,-826.5331 314.4336,-832.1943"/>
</g>
<!-- 607 -->
<g id="node36" class="node">
<title>607</title>
<ellipse fill="none" stroke="#ff0000" cx="154" cy="-522" rx="27" ry="18"/>
<text text-anchor="middle" x="154" y="-518.3" font-family="Times,serif" font-size="14.00" fill="#000000">607</text>
</g>
<!-- 588&#45;&gt;607 -->
<g id="edge10" class="edge">
<title>588&#45;&gt;607</title>
<path fill="none" stroke="#ff0000" d="M182.9945,-576.937C178.5172,-568.4537 173.0048,-558.0092 167.993,-548.513"/>
<polygon fill="#ff0000" stroke="#ff0000" points="170.9678,-546.6509 163.2048,-539.4407 164.7771,-549.9182 170.9678,-546.6509"/>
</g>
<!-- 588&#45;&gt;618 -->
<g id="edge39" class="edge">
<title>588&#45;&gt;618</title>
<path fill="none" stroke="#ff0000" d="M200.2305,-576.5708C204.1979,-568.1691 209.0429,-557.9091 213.4567,-548.5623"/>
<polygon fill="#ff0000" stroke="#ff0000" points="216.7401,-549.8057 217.8453,-539.2687 210.4104,-546.8166 216.7401,-549.8057"/>
</g>
<!-- 851 -->
<g id="node33" class="node">
<title>851</title>
<ellipse fill="none" stroke="#ff0000" cx="154" cy="-738" rx="27" ry="18"/>
<text text-anchor="middle" x="154" y="-734.3" font-family="Times,serif" font-size="14.00" fill="#000000">851</text>
</g>
<!-- 851&#45;&gt;1069 -->
<g id="edge23" class="edge">
<title>851&#45;&gt;1069</title>
<path fill="none" stroke="#ff0000" d="M145.2315,-720.937C140.8721,-712.4537 135.5047,-702.0092 130.6247,-692.513"/>
<polygon fill="#ff0000" stroke="#ff0000" points="133.6463,-690.7352 125.9626,-683.4407 127.4203,-693.9348 133.6463,-690.7352"/>
</g>
<!-- 851&#45;&gt;1080 -->
<g id="edge20" class="edge">
<title>851&#45;&gt;1080</title>
<path fill="none" stroke="#ff0000" d="M163.0055,-720.937C167.4828,-712.4537 172.9952,-702.0092 178.007,-692.513"/>
<polygon fill="#ff0000" stroke="#ff0000" points="181.2229,-693.9182 182.7952,-683.4407 175.0322,-690.6509 181.2229,-693.9182"/>
</g>
<!-- 1249 -->
<g id="node37" class="node">
<title>1249</title>
<ellipse fill="none" stroke="#ff0000" cx="193" cy="-1170" rx="28.6953" ry="18"/>
<text text-anchor="middle" x="193" y="-1166.3" font-family="Times,serif" font-size="14.00" fill="#000000">1249</text>
</g>
<!-- 1246&#45;&gt;1249 -->
<g id="edge16" class="edge">
<title>1246&#45;&gt;1249</title>
<path fill="none" stroke="#ff0000" d="M193,-1223.8314C193,-1216.131 193,-1206.9743 193,-1198.4166"/>
<polygon fill="#ff0000" stroke="#ff0000" points="196.5001,-1198.4132 193,-1188.4133 189.5001,-1198.4133 196.5001,-1198.4132"/>
</g>
<!-- 1249&#45;&gt;1287 -->
<g id="edge36" class="edge">
<title>1249&#45;&gt;1287</title>
<path fill="none" stroke="#ff0000" d="M177.0944,-1154.7307C166.6537,-1144.7075 152.8251,-1131.4321 141.1702,-1120.2434"/>
<polygon fill="#ff0000" stroke="#ff0000" points="143.5204,-1117.6478 133.8826,-1113.2473 138.6727,-1122.6976 143.5204,-1117.6478"/>
</g>
<!-- 1258 -->
<g id="node40" class="node">
<title>1258</title>
<ellipse fill="none" stroke="#ff0000" cx="193" cy="-1098" rx="28.6953" ry="18"/>
<text text-anchor="middle" x="193" y="-1094.3" font-family="Times,serif" font-size="14.00" fill="#000000">1258</text>
</g>
<!-- 1249&#45;&gt;1258 -->
<g id="edge51" class="edge">
<title>1249&#45;&gt;1258</title>
<path fill="none" stroke="#ff0000" d="M187.0843,-1152.2022C186.2945,-1144.3271 186.0655,-1134.875 186.3971,-1126.0852"/>
<polygon fill="#ff0000" stroke="#ff0000" points="189.9069,-1126.0532 187.0798,-1115.8425 182.9224,-1125.5876 189.9069,-1126.0532"/>
</g>
<!-- 485&#45;&gt;540 -->
<g id="edge25" class="edge">
<title>485&#45;&gt;540</title>
<path fill="none" stroke="#ff0000" d="M131.7309,-288.356C136.8096,-269.9206 142.3717,-240.3472 135,-216 131.7339,-205.2127 125.5236,-194.6108 119.1687,-185.6963"/>
<polygon fill="#ff0000" stroke="#ff0000" points="121.9513,-183.5732 113.1229,-177.7156 116.3715,-187.8001 121.9513,-183.5732"/>
</g>
<!-- 492 -->
<g id="node41" class="node">
<title>492</title>
<ellipse fill="none" stroke="#ff0000" cx="99" cy="-234" rx="27" ry="18"/>
<text text-anchor="middle" x="99" y="-230.3" font-family="Times,serif" font-size="14.00" fill="#000000">492</text>
</g>
<!-- 485&#45;&gt;492 -->
<g id="edge48" class="edge">
<title>485&#45;&gt;492</title>
<path fill="none" stroke="#ff0000" d="M119.3258,-288.2022C116.2524,-280.0064 112.5384,-270.1024 109.1305,-261.0145"/>
<polygon fill="#ff0000" stroke="#ff0000" points="112.3858,-259.7274 105.5974,-251.593 105.8315,-262.1853 112.3858,-259.7274"/>
</g>
<!-- 618&#45;&gt;25 -->
<g id="edge28" class="edge">
<title>618&#45;&gt;25</title>
<path fill="none" stroke="#ff0000" d="M226.2523,-503.8314C226.3593,-496.131 226.4865,-486.9743 226.6053,-478.4166"/>
<polygon fill="#ff0000" stroke="#ff0000" points="230.1049,-478.4609 226.7443,-468.4133 223.1056,-478.3637 230.1049,-478.4609"/>
</g>
<!-- 618&#45;&gt;297 -->
<g id="edge54" class="edge">
<title>618&#45;&gt;297</title>
<path fill="none" stroke="#ff0000" d="M210.8744,-507.0816C200.6655,-497.0125 187.0122,-483.5463 175.5307,-472.2221"/>
<polygon fill="#ff0000" stroke="#ff0000" points="177.9349,-469.6773 168.3574,-465.147 173.0194,-474.6611 177.9349,-469.6773"/>
</g>
<!-- 1258&#45;&gt;1249 -->
<g id="edge34" class="edge">
<title>1258&#45;&gt;1249</title>
<path fill="none" stroke="#ff0000" d="M198.9202,-1115.8425C199.7078,-1123.7236 199.9348,-1133.1774 199.601,-1141.9647"/>
<polygon fill="#ff0000" stroke="#ff0000" points="196.0915,-1141.9908 198.9157,-1152.2022 203.0759,-1142.4583 196.0915,-1141.9908"/>
</g>
<!-- 492&#45;&gt;540 -->
<g id="edge14" class="edge">
<title>492&#45;&gt;540</title>
<path fill="none" stroke="#ff0000" d="M99,-215.8314C99,-208.131 99,-198.9743 99,-190.4166"/>
<polygon fill="#ff0000" stroke="#ff0000" points="102.5001,-190.4132 99,-180.4133 95.5001,-190.4133 102.5001,-190.4132"/>
</g>
<!-- 241&#45;&gt;280 -->
<g id="edge6" class="edge">
<title>241&#45;&gt;280</title>
<path fill="none" stroke="#ff0000" d="M236.4672,-791.8314C234.9302,-783.9266 233.0947,-774.4872 231.3932,-765.7365"/>
<polygon fill="#ff0000" stroke="#ff0000" points="234.8276,-765.0615 229.4832,-755.9134 227.9563,-766.3976 234.8276,-765.0615"/>
</g>
<!-- 247 -->
<g id="node45" class="node">
<title>247</title>
<ellipse fill="none" stroke="#ff0000" cx="298" cy="-738" rx="27" ry="18"/>
<text text-anchor="middle" x="298" y="-734.3" font-family="Times,serif" font-size="14.00" fill="#000000">247</text>
</g>
<!-- 241&#45;&gt;247 -->
<g id="edge50" class="edge">
<title>241&#45;&gt;247</title>
<path fill="none" stroke="#ff0000" d="M252.8721,-794.0209C260.4562,-784.6061 270.1982,-772.5126 278.6884,-761.973"/>
<polygon fill="#ff0000" stroke="#ff0000" points="281.6162,-763.9177 285.1639,-753.9345 276.1649,-759.5264 281.6162,-763.9177"/>
</g>
<!-- 629&#45;&gt;840 -->
<g id="edge30" class="edge">
<title>629&#45;&gt;840</title>
<path fill="none" stroke="#ff0000" d="M109.2854,-792.5708C105.0403,-784.0807 99.8464,-773.6929 95.1337,-764.2674"/>
<polygon fill="#ff0000" stroke="#ff0000" points="98.237,-762.6477 90.6343,-755.2687 91.976,-765.7782 98.237,-762.6477"/>
</g>
<!-- 629&#45;&gt;851 -->
<g id="edge43" class="edge">
<title>629&#45;&gt;851</title>
<path fill="none" stroke="#ff0000" d="M126.7146,-792.5708C130.9597,-784.0807 136.1536,-773.6929 140.8663,-764.2674"/>
<polygon fill="#ff0000" stroke="#ff0000" points="144.024,-765.7782 145.3657,-755.2687 137.763,-762.6477 144.024,-765.7782"/>
</g>
<!-- 247&#45;&gt;285 -->
<g id="edge19" class="edge">
<title>247&#45;&gt;285</title>
<path fill="none" stroke="#ff0000" d="M298,-719.8314C298,-712.131 298,-702.9743 298,-694.4166"/>
<polygon fill="#ff0000" stroke="#ff0000" points="301.5001,-694.4132 298,-684.4133 294.5001,-694.4133 301.5001,-694.4132"/>
</g>
<!-- 251&#45;&gt;285 -->
<g id="edge55" class="edge">
<title>251&#45;&gt;285</title>
<path fill="none" stroke="#ff0000" d="M340.737,-791.8915C341.8909,-773.3369 341.9674,-743.9021 334,-720 330.4726,-709.4177 324.2896,-698.9444 318.0324,-690.0784"/>
<polygon fill="#ff0000" stroke="#ff0000" points="320.6371,-687.7171 311.8461,-681.8036 315.0306,-691.9085 320.6371,-687.7171"/>
</g>
<!-- 1406&#45;&gt;1415 -->
<g id="edge41" class="edge">
<title>1406&#45;&gt;1415</title>
<path fill="none" stroke="#ff0000" d="M221.0843,-216.2022C220.2945,-208.3271 220.0655,-198.875 220.3971,-190.0852"/>
<polygon fill="#ff0000" stroke="#ff0000" points="223.9069,-190.0532 221.0798,-179.8425 216.9224,-189.5876 223.9069,-190.0532"/>
</g>
<!-- 1406&#45;&gt;1553 -->
<g id="edge31" class="edge">
<title>1406&#45;&gt;1553</title>
<path fill="none" stroke="#ff0000" d="M242.9056,-218.7307C253.3463,-208.7075 267.1749,-195.4321 278.8298,-184.2434"/>
<polygon fill="#ff0000" stroke="#ff0000" points="281.3273,-186.6976 286.1174,-177.2473 276.4796,-181.6478 281.3273,-186.6976"/>
</g>
<!-- 128 -->
<g id="node49" class="node">
<title>128</title>
<ellipse fill="none" stroke="#0000ff" cx="305" cy="-1602" rx="27" ry="18"/>
<text text-anchor="middle" x="305" y="-1598.3" font-family="Times,serif" font-size="14.00" fill="#000000">128</text>
</g>
<!-- 514 -->
<g id="node50" class="node">
<title>514</title>
<ellipse fill="none" stroke="#0000ff" cx="377" cy="-1602" rx="27" ry="18"/>
<text text-anchor="middle" x="377" y="-1598.3" font-family="Times,serif" font-size="14.00" fill="#000000">514</text>
</g>
<!-- 259 -->
<g id="node51" class="node">
<title>259</title>
<ellipse fill="none" stroke="#0000ff" cx="449" cy="-1602" rx="27" ry="18"/>
<text text-anchor="middle" x="449" y="-1598.3" font-family="Times,serif" font-size="14.00" fill="#000000">259</text>
</g>
<!-- 1283 -->
<g id="node52" class="node">
<title>1283</title>
<ellipse fill="none" stroke="#0000ff" cx="523" cy="-1602" rx="28.6953" ry="18"/>
<text text-anchor="middle" x="523" y="-1598.3" font-family="Times,serif" font-size="14.00" fill="#000000">1283</text>
</g>
<!-- 1285 -->
<g id="node53" class="node">
<title>1285</title>
<ellipse fill="none" stroke="#0000ff" cx="598" cy="-1602" rx="28.6953" ry="18"/>
<text text-anchor="middle" x="598" y="-1598.3" font-family="Times,serif" font-size="14.00" fill="#000000">1285</text>
</g>
<!-- 1667 -->
<g id="node54" class="node">
<title>1667</title>
<ellipse fill="none" stroke="#0000ff" cx="673" cy="-1602" rx="28.6953" ry="18"/>
<text text-anchor="middle" x="673" y="-1598.3" font-family="Times,serif" font-size="14.00" fill="#000000">1667</text>
</g>
<!-- 520 -->
<g id="node55" class="node">
<title>520</title>
<ellipse fill="none" stroke="#0000ff" cx="747" cy="-1602" rx="27" ry="18"/>
<text text-anchor="middle" x="747" y="-1598.3" font-family="Times,serif" font-size="14.00" fill="#000000">520</text>
</g>
<!-- 9 -->
<g id="node56" class="node">
<title>9</title>
<ellipse fill="none" stroke="#0000ff" cx="819" cy="-1602" rx="27" ry="18"/>
<text text-anchor="middle" x="819" y="-1598.3" font-family="Times,serif" font-size="14.00" fill="#000000">9</text>
</g>
<!-- 1800 -->
<g id="node57" class="node">
<title>1800</title>
<ellipse fill="none" stroke="#0000ff" cx="893" cy="-1602" rx="28.6953" ry="18"/>
<text text-anchor="middle" x="893" y="-1598.3" font-family="Times,serif" font-size="14.00" fill="#000000">1800</text>
</g>
<!-- 1801 -->
<g id="node58" class="node">
<title>1801</title>
<ellipse fill="none" stroke="#0000ff" cx="968" cy="-1602" rx="28.6953" ry="18"/>
<text text-anchor="middle" x="968" y="-1598.3" font-family="Times,serif" font-size="14.00" fill="#000000">1801</text>
</g>
<!-- 396 -->
<g id="node59" class="node">
<title>396</title>
<ellipse fill="none" stroke="#0000ff" cx="1042" cy="-1602" rx="27" ry="18"/>
<text text-anchor="middle" x="1042" y="-1598.3" font-family="Times,serif" font-size="14.00" fill="#000000">396</text>
</g>
<!-- 271 -->
<g id="node60" class="node">
<title>271</title>
<ellipse fill="none" stroke="#0000ff" cx="1114" cy="-1602" rx="27" ry="18"/>
<text text-anchor="middle" x="1114" y="-1598.3" font-family="Times,serif" font-size="14.00" fill="#000000">271</text>
</g>
<!-- 531 -->
<g id="node61" class="node">
<title>531</title>
<ellipse fill="none" stroke="#0000ff" cx="1186" cy="-1602" rx="27" ry="18"/>
<text text-anchor="middle" x="1186" y="-1598.3" font-family="Times,serif" font-size="14.00" fill="#000000">531</text>
</g>
<!-- 1043 -->
<g id="node62" class="node">
<title>1043</title>
<ellipse fill="none" stroke="#0000ff" cx="1260" cy="-1602" rx="28.6953" ry="18"/>
<text text-anchor="middle" x="1260" y="-1598.3" font-family="Times,serif" font-size="14.00" fill="#000000">1043</text>
</g>
<!-- 1813 -->
<g id="node63" class="node">
<title>1813</title>
<ellipse fill="none" stroke="#0000ff" cx="1335" cy="-1602" rx="28.6953" ry="18"/>
<text text-anchor="middle" x="1335" y="-1598.3" font-family="Times,serif" font-size="14.00" fill="#000000">1813</text>
</g>
<!-- 1688 -->
<g id="node64" class="node">
<title>1688</title>
<ellipse fill="none" stroke="#0000ff" cx="1410" cy="-1602" rx="28.6953" ry="18"/>
<text text-anchor="middle" x="1410" y="-1598.3" font-family="Times,serif" font-size="14.00" fill="#000000">1688</text>
</g>
<!-- 1816 -->
<g id="node65" class="node">
<title>1816</title>
<ellipse fill="none" stroke="#0000ff" cx="1485" cy="-1602" rx="28.6953" ry="18"/>
<text text-anchor="middle" x="1485" y="-1598.3" font-family="Times,serif" font-size="14.00" fill="#000000">1816</text>
</g>
<!-- 1817 -->
<g id="node66" class="node">
<title>1817</title>
<ellipse fill="none" stroke="#0000ff" cx="1560" cy="-1602" rx="28.6953" ry="18"/>
<text text-anchor="middle" x="1560" y="-1598.3" font-family="Times,serif" font-size="14.00" fill="#000000">1817</text>
</g>
<!-- 155 -->
<g id="node67" class="node">
<title>155</title>
<ellipse fill="none" stroke="#0000ff" cx="1634" cy="-1602" rx="27" ry="18"/>
<text text-anchor="middle" x="1634" y="-1598.3" font-family="Times,serif" font-size="14.00" fill="#000000">155</text>
</g>
<!-- 1054 -->
<g id="node68" class="node">
<title>1054</title>
<ellipse fill="none" stroke="#0000ff" cx="1708" cy="-1602" rx="28.6953" ry="18"/>
<text text-anchor="middle" x="1708" y="-1598.3" font-family="Times,serif" font-size="14.00" fill="#000000">1054</text>
</g>
<!-- 1568 -->
<g id="node69" class="node">
<title>1568</title>
<ellipse fill="none" stroke="#0000ff" cx="1783" cy="-1602" rx="28.6953" ry="18"/>
<text text-anchor="middle" x="1783" y="-1598.3" font-family="Times,serif" font-size="14.00" fill="#000000">1568</text>
</g>
<!-- 551 -->
<g id="node70" class="node">
<title>551</title>
<ellipse fill="none" stroke="#0000ff" cx="1857" cy="-1602" rx="27" ry="18"/>
<text text-anchor="middle" x="1857" y="-1598.3" font-family="Times,serif" font-size="14.00" fill="#000000">551</text>
</g>
<!-- 168 -->
<g id="node71" class="node">
<title>168</title>
<ellipse fill="none" stroke="#0000ff" cx="1929" cy="-1602" rx="27" ry="18"/>
<text text-anchor="middle" x="1929" y="-1598.3" font-family="Times,serif" font-size="14.00" fill="#000000">168</text>
</g>
<!-- 1063 -->
<g id="node72" class="node">
<title>1063</title>
<ellipse fill="none" stroke="#0000ff" cx="2003" cy="-1602" rx="28.6953" ry="18"/>
<text text-anchor="middle" x="2003" y="-1598.3" font-family="Times,serif" font-size="14.00" fill="#000000">1063</text>
</g>
<!-- 1577 -->
<g id="node73" class="node">
<title>1577</title>
<ellipse fill="none" stroke="#0000ff" cx="2078" cy="-1602" rx="28.6953" ry="18"/>
<text text-anchor="middle" x="2078" y="-1598.3" font-family="Times,serif" font-size="14.00" fill="#000000">1577</text>
</g>
<!-- 1452 -->
<g id="node74" class="node">
<title>1452</title>
<ellipse fill="none" stroke="#0000ff" cx="2153" cy="-1602" rx="28.6953" ry="18"/>
<text text-anchor="middle" x="2153" y="-1598.3" font-family="Times,serif" font-size="14.00" fill="#000000">1452</text>
</g>
<!-- 814 -->
<g id="node75" class="node">
<title>814</title>
<ellipse fill="none" stroke="#0000ff" cx="2227" cy="-1602" rx="27" ry="18"/>
<text text-anchor="middle" x="2227" y="-1598.3" font-family="Times,serif" font-size="14.00" fill="#000000">814</text>
</g>
<!-- 1840 -->
<g id="node76" class="node">
<title>1840</title>
<ellipse fill="none" stroke="#0000ff" cx="2301" cy="-1602" rx="28.6953" ry="18"/>
<text text-anchor="middle" x="2301" y="-1598.3" font-family="Times,serif" font-size="14.00" fill="#000000">1840</text>
</g>
<!-- 178 -->
<g id="node77" class="node">
<title>178</title>
<ellipse fill="none" stroke="#0000ff" cx="2375" cy="-1602" rx="27" ry="18"/>
<text text-anchor="middle" x="2375" y="-1598.3" font-family="Times,serif" font-size="14.00" fill="#000000">178</text>
</g>
<!-- 562 -->
<g id="node78" class="node">
<title>562</title>
<ellipse fill="none" stroke="#0000ff" cx="2447" cy="-1602" rx="27" ry="18"/>
<text text-anchor="middle" x="2447" y="-1598.3" font-family="Times,serif" font-size="14.00" fill="#000000">562</text>
</g>
<!-- 825 -->
<g id="node79" class="node">
<title>825</title>
<ellipse fill="none" stroke="#0000ff" cx="2519" cy="-1602" rx="27" ry="18"/>
<text text-anchor="middle" x="2519" y="-1598.3" font-family="Times,serif" font-size="14.00" fill="#000000">825</text>
</g>
<!-- 1209 -->
<g id="node80" class="node">
<title>1209</title>
<ellipse fill="none" stroke="#0000ff" cx="2593" cy="-1602" rx="28.6953" ry="18"/>
<text text-anchor="middle" x="2593" y="-1598.3" font-family="Times,serif" font-size="14.00" fill="#000000">1209</text>
</g>
<!-- 1849 -->
<g id="node81" class="node">
<title>1849</title>
<ellipse fill="none" stroke="#0000ff" cx="2668" cy="-1602" rx="28.6953" ry="18"/>
<text text-anchor="middle" x="2668" y="-1598.3" font-family="Times,serif" font-size="14.00" fill="#000000">1849</text>
</g>
<!-- 1852 -->
<g id="node82" class="node">
<title>1852</title>
<ellipse fill="none" stroke="#0000ff" cx="2743" cy="-1602" rx="28.6953" ry="18"/>
<text text-anchor="middle" x="2743" y="-1598.3" font-family="Times,serif" font-size="14.00" fill="#000000">1852</text>
</g>
<!-- 1220 -->
<g id="node83" class="node">
<title>1220</title>
<ellipse fill="none" stroke="#0000ff" cx="2818" cy="-1602" rx="28.6953" ry="18"/>
<text text-anchor="middle" x="2818" y="-1598.3" font-family="Times,serif" font-size="14.00" fill="#000000">1220</text>
</g>
<!-- 581 -->
<g id="node84" class="node">
<title>581</title>
<ellipse fill="none" stroke="#0000ff" cx="2892" cy="-1602" rx="27" ry="18"/>
<text text-anchor="middle" x="2892" y="-1598.3" font-family="Times,serif" font-size="14.00" fill="#000000">581</text>
</g>
<!-- 1477 -->
<g id="node85" class="node">
<title>1477</title>
<ellipse fill="none" stroke="#0000ff" cx="2966" cy="-1602" rx="28.6953" ry="18"/>
<text text-anchor="middle" x="2966" y="-1598.3" font-family="Times,serif" font-size="14.00" fill="#000000">1477</text>
</g>
<!-- 1223 -->
<g id="node86" class="node">
<title>1223</title>
<ellipse fill="none" stroke="#0000ff" cx="3041" cy="-1602" rx="28.6953" ry="18"/>
<text text-anchor="middle" x="3041" y="-1598.3" font-family="Times,serif" font-size="14.00" fill="#000000">1223</text>
</g>
<!-- 459 -->
<g id="node87" class="node">
<title>459</title>
<ellipse fill="none" stroke="#0000ff" cx="3115" cy="-1602" rx="27" ry="18"/>
<text text-anchor="middle" x="3115" y="-1598.3" font-family="Times,serif" font-size="14.00" fill="#000000">459</text>
</g>
<!-- 592 -->
<g id="node88" class="node">
<title>592</title>
<ellipse fill="none" stroke="#0000ff" cx="3187" cy="-1602" rx="27" ry="18"/>
<text text-anchor="middle" x="3187" y="-1598.3" font-family="Times,serif" font-size="14.00" fill="#000000">592</text>
</g>
<!-- 1232 -->
<g id="node89" class="node">
<title>1232</title>
<ellipse fill="none" stroke="#0000ff" cx="3261" cy="-1602" rx="28.6953" ry="18"/>
<text text-anchor="middle" x="3261" y="-1598.3" font-family="Times,serif" font-size="14.00" fill="#000000">1232</text>
</g>
<!-- 466 -->
<g id="node90" class="node">
<title>466</title>
<ellipse fill="none" stroke="#0000ff" cx="3335" cy="-1602" rx="27" ry="18"/>
<text text-anchor="middle" x="3335" y="-1598.3" font-family="Times,serif" font-size="14.00" fill="#000000">466</text>
</g>
<!-- 215 -->
<g id="node91" class="node">
<title>215</title>
<ellipse fill="none" stroke="#0000ff" cx="3407" cy="-1602" rx="27" ry="18"/>
<text text-anchor="middle" x="3407" y="-1598.3" font-family="Times,serif" font-size="14.00" fill="#000000">215</text>
</g>
<!-- 1753 -->
<g id="node92" class="node">
<title>1753</title>
<ellipse fill="none" stroke="#0000ff" cx="3481" cy="-1602" rx="28.6953" ry="18"/>
<text text-anchor="middle" x="3481" y="-1598.3" font-family="Times,serif" font-size="14.00" fill="#000000">1753</text>
</g>
<!-- 603 -->
<g id="node93" class="node">
<title>603</title>
<ellipse fill="none" stroke="#0000ff" cx="3555" cy="-1602" rx="27" ry="18"/>
<text text-anchor="middle" x="3555" y="-1598.3" font-family="Times,serif" font-size="14.00" fill="#000000">603</text>
</g>
<!-- 221 -->
<g id="node94" class="node">
<title>221</title>
<ellipse fill="none" stroke="#0000ff" cx="3627" cy="-1602" rx="27" ry="18"/>
<text text-anchor="middle" x="3627" y="-1598.3" font-family="Times,serif" font-size="14.00" fill="#000000">221</text>
</g>
<!-- 94 -->
<g id="node95" class="node">
<title>94</title>
<ellipse fill="none" stroke="#0000ff" cx="3699" cy="-1602" rx="27" ry="18"/>
<text text-anchor="middle" x="3699" y="-1598.3" font-family="Times,serif" font-size="14.00" fill="#000000">94</text>
</g>
<!-- 225 -->
<g id="node96" class="node">
<title>225</title>
<ellipse fill="none" stroke="#0000ff" cx="3771" cy="-1602" rx="27" ry="18"/>
<text text-anchor="middle" x="3771" y="-1598.3" font-family="Times,serif" font-size="14.00" fill="#000000">225</text>
</g>
<!-- 1380 -->
<g id="node97" class="node">
<title>1380</title>
<ellipse fill="none" stroke="#0000ff" cx="3845" cy="-1602" rx="28.6953" ry="18"/>
<text text-anchor="middle" x="3845" y="-1598.3" font-family="Times,serif" font-size="14.00" fill="#000000">1380</text>
</g>
<!-- 105 -->
<g id="node98" class="node">
<title>105</title>
<ellipse fill="none" stroke="#0000ff" cx="3919" cy="-1602" rx="27" ry="18"/>
<text text-anchor="middle" x="3919" y="-1598.3" font-family="Times,serif" font-size="14.00" fill="#000000">105</text>
</g>
<!-- 1261 -->
<g id="node99" class="node">
<title>1261</title>
<ellipse fill="none" stroke="#0000ff" cx="3993" cy="-1602" rx="28.6953" ry="18"/>
<text text-anchor="middle" x="3993" y="-1598.3" font-family="Times,serif" font-size="14.00" fill="#000000">1261</text>
</g>
<!-- 1389 -->
<g id="node100" class="node">
<title>1389</title>
<ellipse fill="none" stroke="#0000ff" cx="4068" cy="-1602" rx="28.6953" ry="18"/>
<text text-anchor="middle" x="4068" y="-1598.3" font-family="Times,serif" font-size="14.00" fill="#000000">1389</text>
</g>
<!-- 117 -->
<g id="node101" class="node">
<title>117</title>
<ellipse fill="none" stroke="#0000ff" cx="4142" cy="-1602" rx="27" ry="18"/>
<text text-anchor="middle" x="4142" y="-1598.3" font-family="Times,serif" font-size="14.00" fill="#000000">117</text>
</g>
<!-- 1527 -->
<g id="node102" class="node">
<title>1527</title>
<ellipse fill="none" stroke="#0000ff" cx="4216" cy="-1602" rx="28.6953" ry="18"/>
<text text-anchor="middle" x="4216" y="-1598.3" font-family="Times,serif" font-size="14.00" fill="#000000">1527</text>
</g>
<!-- 1275 -->
<g id="node103" class="node">
<title>1275</title>
<ellipse fill="none" stroke="#0000ff" cx="4291" cy="-1602" rx="28.6953" ry="18"/>
<text text-anchor="middle" x="4291" y="-1598.3" font-family="Times,serif" font-size="14.00" fill="#000000">1275</text>
</g>
<!-- 254 -->
<g id="node104" class="node">
<title>254</title>
<ellipse fill="none" stroke="#0000ff" cx="4365" cy="-1602" rx="27" ry="18"/>
<text text-anchor="middle" x="4365" y="-1598.3" font-family="Times,serif" font-size="14.00" fill="#000000">254</text>
</g>
</g>
</svg>
