<?xml version="1.0" encoding="UTF-8" standalone="no"?>
<!DOCTYPE svg PUBLIC "-//W3C//DTD SVG 1.1//EN"
 "http://www.w3.org/Graphics/SVG/1.1/DTD/svg11.dtd">
<!-- Generated by graphviz version 2.40.1 (20161225.0304)
 -->
<!-- Title: diff_Contract_0x0000000000bda2152794ac8c76b2dc86cba57cad Pages: 1 -->
<svg width="189pt" height="188pt"
 viewBox="0.00 0.00 189.00 188.00" xmlns="http://www.w3.org/2000/svg" xmlns:xlink="http://www.w3.org/1999/xlink">
<g id="graph0" class="graph" transform="scale(1 1) rotate(0) translate(4 184)">
<title>diff_Contract_0x0000000000bda2152794ac8c76b2dc86cba57cad</title>
<polygon fill="#ffffff" stroke="transparent" points="-4,4 -4,-184 185,-184 185,4 -4,4"/>
<!-- 0 -->
<g id="node1" class="node">
<title>0</title>
<ellipse fill="none" stroke="#000000" cx="82" cy="-162" rx="27" ry="18"/>
<text text-anchor="middle" x="82" y="-158.3" font-family="Times,serif" font-size="14.00" fill="#000000">0</text>
</g>
<!-- 0&#45;&gt;0 -->
<g id="edge5" class="edge">
<title>0&#45;&gt;0</title>
<path fill="none" stroke="#0000ff" d="M101.895,-174.4321C114.688,-177.6753 127,-173.5313 127,-162 127,-153.6218 120.5006,-149.1433 112.0395,-148.5644"/>
<polygon fill="#0000ff" stroke="#0000ff" points="111.5019,-145.1004 101.895,-149.5679 112.191,-152.0665 111.5019,-145.1004"/>
</g>
<!-- 11 -->
<g id="node3" class="node">
<title>11</title>
<ellipse fill="none" stroke="#000000" cx="27" cy="-90" rx="27" ry="18"/>
<text text-anchor="middle" x="27" y="-86.3" font-family="Times,serif" font-size="14.00" fill="#000000">11</text>
</g>
<!-- 0&#45;&gt;11 -->
<g id="edge1" class="edge">
<title>0&#45;&gt;11</title>
<path fill="none" stroke="#000000" d="M69.5196,-145.6621C62.4876,-136.4564 53.5653,-124.7764 45.7117,-114.4953"/>
<polygon fill="#000000" stroke="#000000" points="48.2828,-112.0953 39.431,-106.2733 42.72,-116.3446 48.2828,-112.0953"/>
</g>
<!-- 15 -->
<g id="node4" class="node">
<title>15</title>
<ellipse fill="none" stroke="#000000" cx="137" cy="-90" rx="27" ry="18"/>
<text text-anchor="middle" x="137" y="-86.3" font-family="Times,serif" font-size="14.00" fill="#000000">15</text>
</g>
<!-- 0&#45;&gt;15 -->
<g id="edge3" class="edge">
<title>0&#45;&gt;15</title>
<path fill="none" stroke="#000000" d="M94.4804,-145.6621C101.5124,-136.4564 110.4347,-124.7764 118.2883,-114.4953"/>
<polygon fill="#000000" stroke="#000000" points="121.28,-116.3446 124.569,-106.2733 115.7172,-112.0953 121.28,-116.3446"/>
</g>
<!-- 39 -->
<g id="node2" class="node">
<title>39</title>
<ellipse fill="none" stroke="#000000" cx="82" cy="-18" rx="27" ry="18"/>
<text text-anchor="middle" x="82" y="-14.3" font-family="Times,serif" font-size="14.00" fill="#000000">39</text>
</g>
<!-- 39&#45;&gt;0 -->
<g id="edge6" class="edge">
<title>39&#45;&gt;0</title>
<path fill="none" stroke="#0000ff" d="M82,-36.0896C82,-60.5727 82,-104.5174 82,-133.4713"/>
<polygon fill="#0000ff" stroke="#0000ff" points="78.5001,-133.7623 82,-143.7623 85.5001,-133.7623 78.5001,-133.7623"/>
</g>
<!-- 15&#45;&gt;39 -->
<g id="edge2" class="edge">
<title>15&#45;&gt;39</title>
<path fill="none" stroke="#000000" d="M124.5196,-73.6621C117.4876,-64.4564 108.5653,-52.7764 100.7117,-42.4953"/>
<polygon fill="#000000" stroke="#000000" points="103.2828,-40.0953 94.431,-34.2733 97.72,-44.3446 103.2828,-40.0953"/>
</g>
<!-- 50 -->
<g id="node5" class="node">
<title>50</title>
<ellipse fill="none" stroke="#ff0000" cx="154" cy="-18" rx="27" ry="18"/>
<text text-anchor="middle" x="154" y="-14.3" font-family="Times,serif" font-size="14.00" fill="#000000">50</text>
</g>
<!-- 15&#45;&gt;50 -->
<g id="edge4" class="edge">
<title>15&#45;&gt;50</title>
<path fill="none" stroke="#ff0000" d="M141.2022,-72.2022C143.0821,-64.2406 145.3425,-54.6671 147.4371,-45.7957"/>
<polygon fill="#ff0000" stroke="#ff0000" points="150.8955,-46.3792 149.7872,-35.8425 144.0828,-44.7706 150.8955,-46.3792"/>
</g>
</g>
</svg>
