<?xml version="1.0" encoding="UTF-8" standalone="no"?>
<!DOCTYPE svg PUBLIC "-//W3C//DTD SVG 1.1//EN"
 "http://www.w3.org/Graphics/SVG/1.1/DTD/svg11.dtd">
<!-- Generated by graphviz version 2.43.0 (0)
 -->
<!-- Title: graph.cfg.gv Pages: 1 -->
<svg width="3744pt" height="313pt"
 viewBox="0.00 0.00 3744.00 313.00" xmlns="http://www.w3.org/2000/svg" xmlns:xlink="http://www.w3.org/1999/xlink">
<g id="graph0" class="graph" transform="scale(1 1) rotate(0) translate(4 309)">
<title>graph.cfg.gv</title>
<polygon fill="white" stroke="transparent" points="-4,4 -4,-309 3740,-309 3740,4 -4,4"/>
<!-- block_0 -->
<g id="node1" class="node">
<title>block_0</title>
<polygon fill="none" stroke="black" points="953,-305 0,-305 0,0 953,0 953,-305"/>
<text text-anchor="start" x="8" y="-277" font-family="Courier,monospace" font-size="30.00">0: PUSH20 0x7de33b2672efb11fde366dae96bd63b985bce186</text>
<text text-anchor="start" x="8" y="-244" font-family="Courier,monospace" font-size="30.00">15: ADDRESS </text>
<text text-anchor="start" x="8" y="-211" font-family="Courier,monospace" font-size="30.00">16: EQ </text>
<text text-anchor="start" x="8" y="-178" font-family="Courier,monospace" font-size="30.00">17: PUSH1 0x80</text>
<text text-anchor="start" x="8" y="-145" font-family="Courier,monospace" font-size="30.00">19: PUSH1 0x40</text>
<text text-anchor="start" x="8" y="-112" font-family="Courier,monospace" font-size="30.00">1b: MSTORE </text>
<text text-anchor="start" x="8" y="-79" font-family="Courier,monospace" font-size="30.00">1c: PUSH1 0x0</text>
<text text-anchor="start" x="8" y="-46" font-family="Courier,monospace" font-size="30.00">1e: DUP1 </text>
<text text-anchor="start" x="8" y="-13" font-family="Courier,monospace" font-size="30.00">1f: REVERT </text>
</g>
<!-- block_20 -->
<g id="node2" class="node">
<title>block_20</title>
<polygon fill="none" stroke="black" points="1204,-173 971,-173 971,-132 1204,-132 1204,-173"/>
<text text-anchor="start" x="979" y="-145" font-family="Courier,monospace" font-size="30.00">20: INVALID </text>
</g>
<!-- block_21 -->
<g id="node3" class="node">
<title>block_21</title>
<polygon fill="none" stroke="black" points="1833,-288.5 1222,-288.5 1222,-16.5 1833,-16.5 1833,-288.5"/>
<text text-anchor="start" x="1230" y="-260.5" font-family="Courier,monospace" font-size="30.00">21: LOG2 </text>
<text text-anchor="start" x="1230" y="-227.5" font-family="Courier,monospace" font-size="30.00">22: PUSH6 0x627a7a723158</text>
<text text-anchor="start" x="1230" y="-194.5" font-family="Courier,monospace" font-size="30.00">29: SHA3 </text>
<text text-anchor="start" x="1230" y="-161.5" font-family="Courier,monospace" font-size="30.00">2a: SGT </text>
<text text-anchor="start" x="1230" y="-128.5" font-family="Courier,monospace" font-size="30.00">2b: NOT </text>
<text text-anchor="start" x="1230" y="-95.5" font-family="Courier,monospace" font-size="30.00">2c: PUSH10 0x32db4e5483ff400bbc65</text>
<text text-anchor="start" x="1230" y="-62.5" font-family="Courier,monospace" font-size="30.00">37: SUB </text>
<text text-anchor="start" x="1230" y="-29.5" font-family="Courier,monospace" font-size="30.00">38: INVALID </text>
</g>
<!-- block_39 -->
<g id="node4" class="node">
<title>block_39</title>
<polygon fill="none" stroke="black" points="2084,-189.5 1851,-189.5 1851,-115.5 2084,-115.5 2084,-189.5"/>
<text text-anchor="start" x="1859" y="-161.5" font-family="Courier,monospace" font-size="30.00">39: SHA3 </text>
<text text-anchor="start" x="1859" y="-128.5" font-family="Courier,monospace" font-size="30.00">3a: INVALID </text>
</g>
<!-- block_3b -->
<g id="node5" class="node">
<title>block_3b</title>
<polygon fill="none" stroke="black" points="2335,-189.5 2102,-189.5 2102,-115.5 2335,-115.5 2335,-189.5"/>
<text text-anchor="start" x="2110" y="-161.5" font-family="Courier,monospace" font-size="30.00">3b: SWAP7 </text>
<text text-anchor="start" x="2110" y="-128.5" font-family="Courier,monospace" font-size="30.00">3c: INVALID </text>
</g>
<!-- block_3d -->
<g id="node6" class="node">
<title>block_3d</title>
<polygon fill="none" stroke="black" points="2586,-173 2353,-173 2353,-132 2586,-132 2586,-173"/>
<text text-anchor="start" x="2361" y="-145" font-family="Courier,monospace" font-size="30.00">3d: INVALID </text>
</g>
<!-- block_3e -->
<g id="node7" class="node">
<title>block_3e</title>
<polygon fill="none" stroke="black" points="3503,-222.5 2604,-222.5 2604,-82.5 3503,-82.5 3503,-222.5"/>
<text text-anchor="start" x="2612" y="-194.5" font-family="Courier,monospace" font-size="30.00">3e: PUSH18 0x905ffbe44054be4e366b8e64736f6c634300</text>
<text text-anchor="start" x="2612" y="-161.5" font-family="Courier,monospace" font-size="30.00">51: SDIV </text>
<text text-anchor="start" x="2612" y="-128.5" font-family="Courier,monospace" font-size="30.00">52: SIGNEXTEND </text>
<text text-anchor="start" x="2612" y="-95.5" font-family="Courier,monospace" font-size="30.00">53: STOP </text>
</g>
<!-- block_54 -->
<g id="node8" class="node">
<title>block_54</title>
<polygon fill="none" stroke="black" points="3736,-173 3521,-173 3521,-132 3736,-132 3736,-173"/>
<text text-anchor="start" x="3529" y="-145" font-family="Courier,monospace" font-size="30.00">54: ORIGIN </text>
</g>
</g>
</svg>
