<?xml version="1.0" encoding="UTF-8" standalone="no"?>
<!DOCTYPE svg PUBLIC "-//W3C//DTD SVG 1.1//EN"
 "http://www.w3.org/Graphics/SVG/1.1/DTD/svg11.dtd">
<!-- Generated by graphviz version 2.40.1 (20161225.0304)
 -->
<!-- Title: diff_Contract_0xd69015163e250a70ee4a607812afda5372132cc4 Pages: 1 -->
<svg width="712pt" height="692pt"
 viewBox="0.00 0.00 712.00 692.00" xmlns="http://www.w3.org/2000/svg" xmlns:xlink="http://www.w3.org/1999/xlink">
<g id="graph0" class="graph" transform="scale(1 1) rotate(0) translate(4 688)">
<title>diff_Contract_0xd69015163e250a70ee4a607812afda5372132cc4</title>
<polygon fill="#ffffff" stroke="transparent" points="-4,4 -4,-688 708,-688 708,4 -4,4"/>
<!-- 0 -->
<g id="node1" class="node">
<title>0</title>
<ellipse fill="none" stroke="#000000" cx="428" cy="-666" rx="27" ry="18"/>
<text text-anchor="middle" x="428" y="-662.3" font-family="Times,serif" font-size="14.00" fill="#000000">0</text>
</g>
<!-- 13 -->
<g id="node4" class="node">
<title>13</title>
<ellipse fill="none" stroke="#000000" cx="365" cy="-594" rx="27" ry="18"/>
<text text-anchor="middle" x="365" y="-590.3" font-family="Times,serif" font-size="14.00" fill="#000000">13</text>
</g>
<!-- 0&#45;&gt;13 -->
<g id="edge27" class="edge">
<title>0&#45;&gt;13</title>
<path fill="none" stroke="#000000" d="M414.3299,-650.3771C405.8266,-640.659 394.7387,-627.987 385.2292,-617.1191"/>
<polygon fill="#000000" stroke="#000000" points="387.8625,-614.8135 378.6434,-609.5924 382.5944,-619.423 387.8625,-614.8135"/>
</g>
<!-- 56 -->
<g id="node13" class="node">
<title>56</title>
<ellipse fill="none" stroke="#000000" cx="478" cy="-594" rx="27" ry="18"/>
<text text-anchor="middle" x="478" y="-590.3" font-family="Times,serif" font-size="14.00" fill="#000000">56</text>
</g>
<!-- 0&#45;&gt;56 -->
<g id="edge4" class="edge">
<title>0&#45;&gt;56</title>
<path fill="none" stroke="#000000" d="M439.3458,-649.6621C445.5855,-640.6768 453.4623,-629.3343 460.4749,-619.2362"/>
<polygon fill="#000000" stroke="#000000" points="463.5229,-620.983 466.3521,-610.7729 457.7733,-616.9902 463.5229,-620.983"/>
</g>
<!-- 514 -->
<g id="node2" class="node">
<title>514</title>
<ellipse fill="none" stroke="#000000" cx="210" cy="-90" rx="27" ry="18"/>
<text text-anchor="middle" x="210" y="-86.3" font-family="Times,serif" font-size="14.00" fill="#000000">514</text>
</g>
<!-- 262 -->
<g id="node3" class="node">
<title>262</title>
<ellipse fill="none" stroke="#000000" cx="81" cy="-234" rx="27" ry="18"/>
<text text-anchor="middle" x="81" y="-230.3" font-family="Times,serif" font-size="14.00" fill="#000000">262</text>
</g>
<!-- 30 -->
<g id="node5" class="node">
<title>30</title>
<ellipse fill="none" stroke="#000000" cx="266" cy="-522" rx="27" ry="18"/>
<text text-anchor="middle" x="266" y="-518.3" font-family="Times,serif" font-size="14.00" fill="#000000">30</text>
</g>
<!-- 13&#45;&gt;30 -->
<g id="edge9" class="edge">
<title>13&#45;&gt;30</title>
<path fill="none" stroke="#000000" d="M346.3789,-580.4574C331.3065,-569.4956 309.8746,-553.9088 292.9313,-541.5864"/>
<polygon fill="#000000" stroke="#000000" points="294.6836,-538.5331 284.5376,-535.4819 290.5664,-544.1943 294.6836,-538.5331"/>
</g>
<!-- 188 -->
<g id="node16" class="node">
<title>188</title>
<ellipse fill="none" stroke="#000000" cx="365" cy="-522" rx="27" ry="18"/>
<text text-anchor="middle" x="365" y="-518.3" font-family="Times,serif" font-size="14.00" fill="#000000">188</text>
</g>
<!-- 13&#45;&gt;188 -->
<g id="edge30" class="edge">
<title>13&#45;&gt;188</title>
<path fill="none" stroke="#000000" d="M365,-575.8314C365,-568.131 365,-558.9743 365,-550.4166"/>
<polygon fill="#000000" stroke="#000000" points="368.5001,-550.4132 365,-540.4133 361.5001,-550.4133 368.5001,-550.4132"/>
</g>
<!-- 41 -->
<g id="node6" class="node">
<title>41</title>
<ellipse fill="none" stroke="#000000" cx="266" cy="-450" rx="27" ry="18"/>
<text text-anchor="middle" x="266" y="-446.3" font-family="Times,serif" font-size="14.00" fill="#000000">41</text>
</g>
<!-- 30&#45;&gt;41 -->
<g id="edge3" class="edge">
<title>30&#45;&gt;41</title>
<path fill="none" stroke="#000000" d="M266,-503.8314C266,-496.131 266,-486.9743 266,-478.4166"/>
<polygon fill="#000000" stroke="#000000" points="269.5001,-478.4132 266,-468.4133 262.5001,-478.4133 269.5001,-478.4132"/>
</g>
<!-- 241 -->
<g id="node30" class="node">
<title>241</title>
<ellipse fill="none" stroke="#000000" cx="99" cy="-450" rx="27" ry="18"/>
<text text-anchor="middle" x="99" y="-446.3" font-family="Times,serif" font-size="14.00" fill="#000000">241</text>
</g>
<!-- 30&#45;&gt;241 -->
<g id="edge6" class="edge">
<title>30&#45;&gt;241</title>
<path fill="none" stroke="#000000" d="M243.1295,-512.1397C214.2284,-499.6793 164.3023,-478.1543 131.4625,-463.9958"/>
<polygon fill="#000000" stroke="#000000" points="132.4302,-460.6016 121.8616,-459.8565 129.6588,-467.0297 132.4302,-460.6016"/>
</g>
<!-- 300 -->
<g id="node8" class="node">
<title>300</title>
<ellipse fill="none" stroke="#000000" cx="207" cy="-378" rx="27" ry="18"/>
<text text-anchor="middle" x="207" y="-374.3" font-family="Times,serif" font-size="14.00" fill="#000000">300</text>
</g>
<!-- 41&#45;&gt;300 -->
<g id="edge35" class="edge">
<title>41&#45;&gt;300</title>
<path fill="none" stroke="#000000" d="M252.906,-434.0209C245.1911,-424.6061 235.2811,-412.5126 226.6445,-401.973"/>
<polygon fill="#000000" stroke="#000000" points="229.1029,-399.4509 220.0574,-393.9345 223.6885,-403.8877 229.1029,-399.4509"/>
</g>
<!-- 52 -->
<g id="node9" class="node">
<title>52</title>
<ellipse fill="none" stroke="#000000" cx="279" cy="-378" rx="27" ry="18"/>
<text text-anchor="middle" x="279" y="-374.3" font-family="Times,serif" font-size="14.00" fill="#000000">52</text>
</g>
<!-- 41&#45;&gt;52 -->
<g id="edge18" class="edge">
<title>41&#45;&gt;52</title>
<path fill="none" stroke="#000000" d="M269.2804,-431.8314C270.6922,-424.0125 272.375,-414.6923 273.9405,-406.0221"/>
<polygon fill="#000000" stroke="#000000" points="277.433,-406.3762 275.7656,-395.9134 270.5444,-405.1324 277.433,-406.3762"/>
</g>
<!-- 171 -->
<g id="node7" class="node">
<title>171</title>
<ellipse fill="none" stroke="#000000" cx="677" cy="-378" rx="27" ry="18"/>
<text text-anchor="middle" x="677" y="-374.3" font-family="Times,serif" font-size="14.00" fill="#000000">171</text>
</g>
<!-- 308 -->
<g id="node11" class="node">
<title>308</title>
<ellipse fill="none" stroke="#000000" cx="153" cy="-306" rx="27" ry="18"/>
<text text-anchor="middle" x="153" y="-302.3" font-family="Times,serif" font-size="14.00" fill="#000000">308</text>
</g>
<!-- 300&#45;&gt;308 -->
<g id="edge12" class="edge">
<title>300&#45;&gt;308</title>
<path fill="none" stroke="#000000" d="M194.7466,-361.6621C187.8423,-352.4564 179.0823,-340.7764 171.3715,-330.4953"/>
<polygon fill="#000000" stroke="#000000" points="174.005,-328.1733 165.2049,-322.2733 168.405,-332.3733 174.005,-328.1733"/>
</g>
<!-- 312 -->
<g id="node14" class="node">
<title>312</title>
<ellipse fill="none" stroke="#000000" cx="225" cy="-306" rx="27" ry="18"/>
<text text-anchor="middle" x="225" y="-302.3" font-family="Times,serif" font-size="14.00" fill="#000000">312</text>
</g>
<!-- 300&#45;&gt;312 -->
<g id="edge14" class="edge">
<title>300&#45;&gt;312</title>
<path fill="none" stroke="#000000" d="M211.4494,-360.2022C213.4398,-352.2406 215.8332,-342.6671 218.0511,-333.7957"/>
<polygon fill="#000000" stroke="#000000" points="221.5094,-334.3929 220.5394,-323.8425 214.7184,-332.6951 221.5094,-334.3929"/>
</g>
<!-- 183 -->
<g id="node12" class="node">
<title>183</title>
<ellipse fill="none" stroke="#000000" cx="297" cy="-306" rx="27" ry="18"/>
<text text-anchor="middle" x="297" y="-302.3" font-family="Times,serif" font-size="14.00" fill="#000000">183</text>
</g>
<!-- 52&#45;&gt;183 -->
<g id="edge25" class="edge">
<title>52&#45;&gt;183</title>
<path fill="none" stroke="#000000" d="M283.4494,-360.2022C285.4398,-352.2406 287.8332,-342.6671 290.0511,-333.7957"/>
<polygon fill="#000000" stroke="#000000" points="293.5094,-334.3929 292.5394,-323.8425 286.7184,-332.6951 293.5094,-334.3929"/>
</g>
<!-- 180 -->
<g id="node10" class="node">
<title>180</title>
<ellipse fill="none" stroke="#000000" cx="605" cy="-378" rx="27" ry="18"/>
<text text-anchor="middle" x="605" y="-374.3" font-family="Times,serif" font-size="14.00" fill="#000000">180</text>
</g>
<!-- 56&#45;&gt;183 -->
<g id="edge31" class="edge">
<title>56&#45;&gt;183</title>
<path fill="none" stroke="#000000" d="M482.714,-575.9748C492.761,-533.0923 511.3308,-423.8258 459,-360 422.0733,-314.962 387.279,-345.1137 333,-324 331.144,-323.278 329.255,-322.4937 327.3635,-321.6699"/>
<polygon fill="#000000" stroke="#000000" points="328.568,-318.3702 318.0246,-317.3272 325.6164,-324.7175 328.568,-318.3702"/>
</g>
<!-- 62 -->
<g id="node17" class="node">
<title>62</title>
<ellipse fill="none" stroke="#000000" cx="533" cy="-522" rx="27" ry="18"/>
<text text-anchor="middle" x="533" y="-518.3" font-family="Times,serif" font-size="14.00" fill="#000000">62</text>
</g>
<!-- 56&#45;&gt;62 -->
<g id="edge16" class="edge">
<title>56&#45;&gt;62</title>
<path fill="none" stroke="#000000" d="M490.4804,-577.6621C497.5124,-568.4564 506.4347,-556.7764 514.2883,-546.4953"/>
<polygon fill="#000000" stroke="#000000" points="517.28,-548.3446 520.569,-538.2733 511.7172,-544.0953 517.28,-548.3446"/>
</g>
<!-- 331 -->
<g id="node21" class="node">
<title>331</title>
<ellipse fill="none" stroke="#000000" cx="161" cy="-234" rx="27" ry="18"/>
<text text-anchor="middle" x="161" y="-230.3" font-family="Times,serif" font-size="14.00" fill="#000000">331</text>
</g>
<!-- 312&#45;&gt;331 -->
<g id="edge15" class="edge">
<title>312&#45;&gt;331</title>
<path fill="none" stroke="#000000" d="M211.113,-290.3771C202.4747,-280.659 191.2107,-267.987 181.5503,-257.1191"/>
<polygon fill="#000000" stroke="#000000" points="184.1196,-254.7413 174.8599,-249.5924 178.8877,-259.3918 184.1196,-254.7413"/>
</g>
<!-- 335 -->
<g id="node22" class="node">
<title>335</title>
<ellipse fill="none" stroke="#000000" cx="233" cy="-234" rx="27" ry="18"/>
<text text-anchor="middle" x="233" y="-230.3" font-family="Times,serif" font-size="14.00" fill="#000000">335</text>
</g>
<!-- 312&#45;&gt;335 -->
<g id="edge13" class="edge">
<title>312&#45;&gt;335</title>
<path fill="none" stroke="#000000" d="M227.0187,-287.8314C227.8743,-280.131 228.8917,-270.9743 229.8426,-262.4166"/>
<polygon fill="#000000" stroke="#000000" points="233.3283,-262.7386 230.9541,-252.4133 226.3711,-261.9656 233.3283,-262.7386"/>
</g>
<!-- 438 -->
<g id="node15" class="node">
<title>438</title>
<ellipse fill="none" stroke="#000000" cx="337" cy="-162" rx="27" ry="18"/>
<text text-anchor="middle" x="337" y="-158.3" font-family="Times,serif" font-size="14.00" fill="#000000">438</text>
</g>
<!-- 239 -->
<g id="node28" class="node">
<title>239</title>
<ellipse fill="none" stroke="#000000" cx="309" cy="-18" rx="27" ry="18"/>
<text text-anchor="middle" x="309" y="-14.3" font-family="Times,serif" font-size="14.00" fill="#000000">239</text>
</g>
<!-- 438&#45;&gt;239 -->
<g id="edge5" class="edge">
<title>438&#45;&gt;239</title>
<path fill="none" stroke="#000000" d="M333.5104,-144.0535C328.7317,-119.4774 320.1029,-75.1008 314.4634,-46.0974"/>
<polygon fill="#000000" stroke="#000000" points="317.878,-45.3208 312.5336,-36.1727 311.0067,-46.6569 317.878,-45.3208"/>
</g>
<!-- 196 -->
<g id="node18" class="node">
<title>196</title>
<ellipse fill="none" stroke="#000000" cx="423" cy="-450" rx="27" ry="18"/>
<text text-anchor="middle" x="423" y="-446.3" font-family="Times,serif" font-size="14.00" fill="#000000">196</text>
</g>
<!-- 188&#45;&gt;196 -->
<g id="edge26" class="edge">
<title>188&#45;&gt;196</title>
<path fill="none" stroke="#000000" d="M377.8721,-506.0209C385.4562,-496.6061 395.1982,-484.5126 403.6884,-473.973"/>
<polygon fill="#000000" stroke="#000000" points="406.6162,-475.9177 410.1639,-465.9345 401.1649,-471.5264 406.6162,-475.9177"/>
</g>
<!-- 200 -->
<g id="node20" class="node">
<title>200</title>
<ellipse fill="none" stroke="#000000" cx="351" cy="-450" rx="27" ry="18"/>
<text text-anchor="middle" x="351" y="-446.3" font-family="Times,serif" font-size="14.00" fill="#000000">200</text>
</g>
<!-- 188&#45;&gt;200 -->
<g id="edge29" class="edge">
<title>188&#45;&gt;200</title>
<path fill="none" stroke="#000000" d="M361.4672,-503.8314C359.9302,-495.9266 358.0947,-486.4872 356.3932,-477.7365"/>
<polygon fill="#000000" stroke="#000000" points="359.8276,-477.0615 354.4832,-467.9134 352.9563,-478.3976 359.8276,-477.0615"/>
</g>
<!-- 112 -->
<g id="node29" class="node">
<title>112</title>
<ellipse fill="none" stroke="#000000" cx="533" cy="-450" rx="27" ry="18"/>
<text text-anchor="middle" x="533" y="-446.3" font-family="Times,serif" font-size="14.00" fill="#000000">112</text>
</g>
<!-- 62&#45;&gt;112 -->
<g id="edge22" class="edge">
<title>62&#45;&gt;112</title>
<path fill="none" stroke="#000000" d="M533,-503.8314C533,-496.131 533,-486.9743 533,-478.4166"/>
<polygon fill="#000000" stroke="#000000" points="536.5001,-478.4132 533,-468.4133 529.5001,-478.4133 536.5001,-478.4132"/>
</g>
<!-- 121 -->
<g id="node33" class="node">
<title>121</title>
<ellipse fill="none" stroke="#000000" cx="677" cy="-450" rx="27" ry="18"/>
<text text-anchor="middle" x="677" y="-446.3" font-family="Times,serif" font-size="14.00" fill="#000000">121</text>
</g>
<!-- 62&#45;&gt;121 -->
<g id="edge24" class="edge">
<title>62&#45;&gt;121</title>
<path fill="none" stroke="#000000" d="M554.8705,-511.0647C579.2222,-498.8889 618.762,-479.119 646.2285,-465.3858"/>
<polygon fill="#000000" stroke="#000000" points="648.0165,-468.4049 655.3955,-460.8022 644.886,-462.1439 648.0165,-468.4049"/>
</g>
<!-- 582 -->
<g id="node19" class="node">
<title>582</title>
<ellipse fill="none" stroke="#000000" cx="282" cy="-90" rx="27" ry="18"/>
<text text-anchor="middle" x="282" y="-86.3" font-family="Times,serif" font-size="14.00" fill="#000000">582</text>
</g>
<!-- 582&#45;&gt;239 -->
<g id="edge10" class="edge">
<title>582&#45;&gt;239</title>
<path fill="none" stroke="#000000" d="M288.6742,-72.2022C291.7476,-64.0064 295.4616,-54.1024 298.8695,-45.0145"/>
<polygon fill="#000000" stroke="#000000" points="302.1685,-46.1853 302.4026,-35.593 295.6142,-43.7274 302.1685,-46.1853"/>
</g>
<!-- 219 -->
<g id="node24" class="node">
<title>219</title>
<ellipse fill="none" stroke="#000000" cx="423" cy="-378" rx="27" ry="18"/>
<text text-anchor="middle" x="423" y="-374.3" font-family="Times,serif" font-size="14.00" fill="#000000">219</text>
</g>
<!-- 200&#45;&gt;219 -->
<g id="edge33" class="edge">
<title>200&#45;&gt;219</title>
<path fill="none" stroke="#000000" d="M366.2693,-434.7307C376.197,-424.803 389.3153,-411.6847 400.4363,-400.5637"/>
<polygon fill="#000000" stroke="#000000" points="403.1564,-402.7933 407.7527,-393.2473 398.2067,-397.8436 403.1564,-402.7933"/>
</g>
<!-- 223 -->
<g id="node25" class="node">
<title>223</title>
<ellipse fill="none" stroke="#000000" cx="351" cy="-378" rx="27" ry="18"/>
<text text-anchor="middle" x="351" y="-374.3" font-family="Times,serif" font-size="14.00" fill="#000000">223</text>
</g>
<!-- 200&#45;&gt;223 -->
<g id="edge28" class="edge">
<title>200&#45;&gt;223</title>
<path fill="none" stroke="#000000" d="M351,-431.8314C351,-424.131 351,-414.9743 351,-406.4166"/>
<polygon fill="#000000" stroke="#000000" points="354.5001,-406.4132 351,-396.4133 347.5001,-406.4133 354.5001,-406.4132"/>
</g>
<!-- 495 -->
<g id="node32" class="node">
<title>495</title>
<ellipse fill="none" stroke="#000000" cx="233" cy="-162" rx="27" ry="18"/>
<text text-anchor="middle" x="233" y="-158.3" font-family="Times,serif" font-size="14.00" fill="#000000">495</text>
</g>
<!-- 335&#45;&gt;495 -->
<g id="edge11" class="edge">
<title>335&#45;&gt;495</title>
<path fill="none" stroke="#000000" d="M233,-215.8314C233,-208.131 233,-198.9743 233,-190.4166"/>
<polygon fill="#000000" stroke="#000000" points="236.5001,-190.4132 233,-180.4133 229.5001,-190.4133 236.5001,-190.4132"/>
</g>
<!-- 472 -->
<g id="node23" class="node">
<title>472</title>
<ellipse fill="none" stroke="#000000" cx="81" cy="-306" rx="27" ry="18"/>
<text text-anchor="middle" x="81" y="-302.3" font-family="Times,serif" font-size="14.00" fill="#000000">472</text>
</g>
<!-- 472&#45;&gt;262 -->
<g id="edge2" class="edge">
<title>472&#45;&gt;262</title>
<path fill="none" stroke="#000000" d="M81,-287.8314C81,-280.131 81,-270.9743 81,-262.4166"/>
<polygon fill="#000000" stroke="#000000" points="84.5001,-262.4132 81,-252.4133 77.5001,-262.4133 84.5001,-262.4132"/>
</g>
<!-- 351 -->
<g id="node26" class="node">
<title>351</title>
<ellipse fill="none" stroke="#000000" cx="369" cy="-306" rx="27" ry="18"/>
<text text-anchor="middle" x="369" y="-302.3" font-family="Times,serif" font-size="14.00" fill="#000000">351</text>
</g>
<!-- 223&#45;&gt;351 -->
<g id="edge34" class="edge">
<title>223&#45;&gt;351</title>
<path fill="none" stroke="#000000" d="M355.4494,-360.2022C357.4398,-352.2406 359.8332,-342.6671 362.0511,-333.7957"/>
<polygon fill="#000000" stroke="#000000" points="365.5094,-334.3929 364.5394,-323.8425 358.7184,-332.6951 365.5094,-334.3929"/>
</g>
<!-- 351&#45;&gt;438 -->
<g id="edge21" class="edge">
<title>351&#45;&gt;438</title>
<path fill="none" stroke="#000000" d="M364.5396,-288.0296C361.9695,-277.5395 358.7195,-264.0395 356,-252 351.316,-231.2632 346.3655,-207.7556 342.6924,-189.9667"/>
<polygon fill="#000000" stroke="#000000" points="346.0779,-189.053 340.6367,-179.9621 339.2211,-190.462 346.0779,-189.053"/>
</g>
<!-- 370 -->
<g id="node31" class="node">
<title>370</title>
<ellipse fill="none" stroke="#000000" cx="392" cy="-234" rx="27" ry="18"/>
<text text-anchor="middle" x="392" y="-230.3" font-family="Times,serif" font-size="14.00" fill="#000000">370</text>
</g>
<!-- 351&#45;&gt;370 -->
<g id="edge1" class="edge">
<title>351&#45;&gt;370</title>
<path fill="none" stroke="#000000" d="M374.6854,-288.2022C377.2563,-280.1541 380.3534,-270.4588 383.2132,-261.5067"/>
<polygon fill="#000000" stroke="#000000" points="386.5913,-262.4334 386.3003,-251.8425 379.9232,-260.3033 386.5913,-262.4334"/>
</g>
<!-- 249 -->
<g id="node27" class="node">
<title>249</title>
<ellipse fill="none" stroke="#000000" cx="27" cy="-378" rx="27" ry="18"/>
<text text-anchor="middle" x="27" y="-374.3" font-family="Times,serif" font-size="14.00" fill="#000000">249</text>
</g>
<!-- 241&#45;&gt;249 -->
<g id="edge23" class="edge">
<title>241&#45;&gt;249</title>
<path fill="none" stroke="#000000" d="M83.7307,-434.7307C73.803,-424.803 60.6847,-411.6847 49.5637,-400.5637"/>
<polygon fill="#000000" stroke="#000000" points="51.7933,-397.8436 42.2473,-393.2473 46.8436,-402.7933 51.7933,-397.8436"/>
</g>
<!-- 253 -->
<g id="node34" class="node">
<title>253</title>
<ellipse fill="none" stroke="#000000" cx="99" cy="-378" rx="27" ry="18"/>
<text text-anchor="middle" x="99" y="-374.3" font-family="Times,serif" font-size="14.00" fill="#000000">253</text>
</g>
<!-- 241&#45;&gt;253 -->
<g id="edge20" class="edge">
<title>241&#45;&gt;253</title>
<path fill="none" stroke="#000000" d="M99,-431.8314C99,-424.131 99,-414.9743 99,-406.4166"/>
<polygon fill="#000000" stroke="#000000" points="102.5001,-406.4132 99,-396.4133 95.5001,-406.4133 102.5001,-406.4132"/>
</g>
<!-- 495&#45;&gt;514 -->
<g id="edge19" class="edge">
<title>495&#45;&gt;514</title>
<path fill="none" stroke="#000000" d="M227.3146,-144.2022C224.7437,-136.1541 221.6466,-126.4588 218.7868,-117.5067"/>
<polygon fill="#000000" stroke="#000000" points="222.0768,-116.3033 215.6997,-107.8425 215.4087,-118.4334 222.0768,-116.3033"/>
</g>
<!-- 495&#45;&gt;582 -->
<g id="edge7" class="edge">
<title>495&#45;&gt;582</title>
<path fill="none" stroke="#000000" d="M244.3647,-145.3008C250.4873,-136.3043 258.1637,-125.0247 264.9841,-115.0029"/>
<polygon fill="#000000" stroke="#000000" points="267.9641,-116.845 270.6969,-106.6087 262.1771,-112.9066 267.9641,-116.845"/>
</g>
<!-- 121&#45;&gt;171 -->
<g id="edge17" class="edge">
<title>121&#45;&gt;171</title>
<path fill="none" stroke="#ff0000" d="M677,-431.8314C677,-424.131 677,-414.9743 677,-406.4166"/>
<polygon fill="#ff0000" stroke="#ff0000" points="680.5001,-406.4132 677,-396.4133 673.5001,-406.4133 680.5001,-406.4132"/>
</g>
<!-- 121&#45;&gt;180 -->
<g id="edge32" class="edge">
<title>121&#45;&gt;180</title>
<path fill="none" stroke="#ff0000" d="M661.7307,-434.7307C651.803,-424.803 638.6847,-411.6847 627.5637,-400.5637"/>
<polygon fill="#ff0000" stroke="#ff0000" points="629.7933,-397.8436 620.2473,-393.2473 624.8436,-402.7933 629.7933,-397.8436"/>
</g>
<!-- 253&#45;&gt;472 -->
<g id="edge8" class="edge">
<title>253&#45;&gt;472</title>
<path fill="none" stroke="#000000" d="M94.5506,-360.2022C92.5602,-352.2406 90.1668,-342.6671 87.9489,-333.7957"/>
<polygon fill="#000000" stroke="#000000" points="91.2816,-332.6951 85.4606,-323.8425 84.4906,-334.3929 91.2816,-332.6951"/>
</g>
<!-- 143 -->
<g id="node35" class="node">
<title>143</title>
<ellipse fill="none" stroke="#0000ff" cx="605" cy="-450" rx="27" ry="18"/>
<text text-anchor="middle" x="605" y="-446.3" font-family="Times,serif" font-size="14.00" fill="#000000">143</text>
</g>
<!-- 143&#45;&gt;171 -->
<g id="edge36" class="edge">
<title>143&#45;&gt;171</title>
<path fill="none" stroke="#0000ff" d="M620.2693,-434.7307C630.197,-424.803 643.3153,-411.6847 654.4363,-400.5637"/>
<polygon fill="#0000ff" stroke="#0000ff" points="657.1564,-402.7933 661.7527,-393.2473 652.2067,-397.8436 657.1564,-402.7933"/>
</g>
<!-- 143&#45;&gt;180 -->
<g id="edge37" class="edge">
<title>143&#45;&gt;180</title>
<path fill="none" stroke="#0000ff" d="M605,-431.8314C605,-424.131 605,-414.9743 605,-406.4166"/>
<polygon fill="#0000ff" stroke="#0000ff" points="608.5001,-406.4132 605,-396.4133 601.5001,-406.4133 608.5001,-406.4132"/>
</g>
<!-- 673 -->
<g id="node36" class="node">
<title>673</title>
<ellipse fill="none" stroke="#0000ff" cx="500" cy="-666" rx="27" ry="18"/>
<text text-anchor="middle" x="500" y="-662.3" font-family="Times,serif" font-size="14.00" fill="#000000">673</text>
</g>
</g>
</svg>
