<?xml version="1.0" encoding="UTF-8" standalone="no"?>
<!DOCTYPE svg PUBLIC "-//W3C//DTD SVG 1.1//EN"
 "http://www.w3.org/Graphics/SVG/1.1/DTD/svg11.dtd">
<!-- Generated by graphviz version 2.40.1 (20161225.0304)
 -->
<!-- Title: diff_Contract_0x8b028e2fad2dc99999fb784ca9d7267981c90b4d Pages: 1 -->
<svg width="292pt" height="620pt"
 viewBox="0.00 0.00 292.00 620.00" xmlns="http://www.w3.org/2000/svg" xmlns:xlink="http://www.w3.org/1999/xlink">
<g id="graph0" class="graph" transform="scale(1 1) rotate(0) translate(4 616)">
<title>diff_Contract_0x8b028e2fad2dc99999fb784ca9d7267981c90b4d</title>
<polygon fill="#ffffff" stroke="transparent" points="-4,4 -4,-616 288,-616 288,4 -4,4"/>
<!-- 0 -->
<g id="node1" class="node">
<title>0</title>
<ellipse fill="none" stroke="#000000" cx="158" cy="-594" rx="27" ry="18"/>
<text text-anchor="middle" x="158" y="-590.3" font-family="Times,serif" font-size="14.00" fill="#000000">0</text>
</g>
<!-- 22 -->
<g id="node14" class="node">
<title>22</title>
<ellipse fill="none" stroke="#000000" cx="158" cy="-522" rx="27" ry="18"/>
<text text-anchor="middle" x="158" y="-518.3" font-family="Times,serif" font-size="14.00" fill="#000000">22</text>
</g>
<!-- 0&#45;&gt;22 -->
<g id="edge2" class="edge">
<title>0&#45;&gt;22</title>
<path fill="none" stroke="#000000" d="M158,-575.8314C158,-568.131 158,-558.9743 158,-550.4166"/>
<polygon fill="#000000" stroke="#000000" points="161.5001,-550.4132 158,-540.4133 154.5001,-550.4133 161.5001,-550.4132"/>
</g>
<!-- 280 -->
<g id="node2" class="node">
<title>280</title>
<ellipse fill="none" stroke="#000000" cx="58" cy="-234" rx="27" ry="18"/>
<text text-anchor="middle" x="58" y="-230.3" font-family="Times,serif" font-size="14.00" fill="#000000">280</text>
</g>
<!-- 15 -->
<g id="node9" class="node">
<title>15</title>
<ellipse fill="none" stroke="#000000" cx="58" cy="-162" rx="27" ry="18"/>
<text text-anchor="middle" x="58" y="-158.3" font-family="Times,serif" font-size="14.00" fill="#000000">15</text>
</g>
<!-- 280&#45;&gt;15 -->
<g id="edge14" class="edge">
<title>280&#45;&gt;15</title>
<path fill="none" stroke="#000000" d="M58,-215.8314C58,-208.131 58,-198.9743 58,-190.4166"/>
<polygon fill="#000000" stroke="#000000" points="61.5001,-190.4132 58,-180.4133 54.5001,-190.4133 61.5001,-190.4132"/>
</g>
<!-- 258 -->
<g id="node3" class="node">
<title>258</title>
<ellipse fill="none" stroke="#000000" cx="130" cy="-306" rx="27" ry="18"/>
<text text-anchor="middle" x="130" y="-302.3" font-family="Times,serif" font-size="14.00" fill="#000000">258</text>
</g>
<!-- 258&#45;&gt;280 -->
<g id="edge19" class="edge">
<title>258&#45;&gt;280</title>
<path fill="none" stroke="#000000" d="M114.7307,-290.7307C104.803,-280.803 91.6847,-267.6847 80.5637,-256.5637"/>
<polygon fill="#000000" stroke="#000000" points="82.7933,-253.8436 73.2473,-249.2473 77.8436,-258.7933 82.7933,-253.8436"/>
</g>
<!-- 276 -->
<g id="node15" class="node">
<title>276</title>
<ellipse fill="none" stroke="#000000" cx="130" cy="-234" rx="27" ry="18"/>
<text text-anchor="middle" x="130" y="-230.3" font-family="Times,serif" font-size="14.00" fill="#000000">276</text>
</g>
<!-- 258&#45;&gt;276 -->
<g id="edge12" class="edge">
<title>258&#45;&gt;276</title>
<path fill="none" stroke="#000000" d="M130,-287.8314C130,-280.131 130,-270.9743 130,-262.4166"/>
<polygon fill="#000000" stroke="#000000" points="133.5001,-262.4132 130,-252.4133 126.5001,-262.4133 133.5001,-262.4132"/>
</g>
<!-- 289 -->
<g id="node4" class="node">
<title>289</title>
<ellipse fill="none" stroke="#000000" cx="58" cy="-90" rx="27" ry="18"/>
<text text-anchor="middle" x="58" y="-86.3" font-family="Times,serif" font-size="14.00" fill="#000000">289</text>
</g>
<!-- 320 -->
<g id="node5" class="node">
<title>320</title>
<ellipse fill="none" stroke="#000000" cx="27" cy="-18" rx="27" ry="18"/>
<text text-anchor="middle" x="27" y="-14.3" font-family="Times,serif" font-size="14.00" fill="#000000">320</text>
</g>
<!-- 289&#45;&gt;320 -->
<g id="edge20" class="edge">
<title>289&#45;&gt;320</title>
<path fill="none" stroke="#000000" d="M50.4958,-72.5708C46.905,-64.2309 42.5258,-54.0598 38.5254,-44.7686"/>
<polygon fill="#000000" stroke="#000000" points="41.7119,-43.319 34.5426,-35.5182 35.2825,-46.0872 41.7119,-43.319"/>
</g>
<!-- 316 -->
<g id="node18" class="node">
<title>316</title>
<ellipse fill="none" stroke="#000000" cx="99" cy="-18" rx="27" ry="18"/>
<text text-anchor="middle" x="99" y="-14.3" font-family="Times,serif" font-size="14.00" fill="#000000">316</text>
</g>
<!-- 289&#45;&gt;316 -->
<g id="edge17" class="edge">
<title>289&#45;&gt;316</title>
<path fill="none" stroke="#000000" d="M67.7164,-72.937C72.6693,-64.2393 78.7961,-53.4799 84.3113,-43.7948"/>
<polygon fill="#000000" stroke="#000000" points="87.4463,-45.3623 89.3533,-34.9405 81.3634,-41.8984 87.4463,-45.3623"/>
</g>
<!-- 199 -->
<g id="node6" class="node">
<title>199</title>
<ellipse fill="none" stroke="#000000" cx="185" cy="-162" rx="27" ry="18"/>
<text text-anchor="middle" x="185" y="-158.3" font-family="Times,serif" font-size="14.00" fill="#000000">199</text>
</g>
<!-- 244 -->
<g id="node13" class="node">
<title>244</title>
<ellipse fill="none" stroke="#000000" cx="198" cy="-18" rx="27" ry="18"/>
<text text-anchor="middle" x="198" y="-14.3" font-family="Times,serif" font-size="14.00" fill="#000000">244</text>
</g>
<!-- 199&#45;&gt;244 -->
<g id="edge1" class="edge">
<title>199&#45;&gt;244</title>
<path fill="none" stroke="#000000" d="M188.08,-144.0516C189.7734,-133.5688 191.7734,-120.0688 193,-108 195.0934,-87.4035 196.3584,-64.0597 197.0922,-46.3084"/>
<polygon fill="#000000" stroke="#000000" points="200.5898,-46.4363 197.4741,-36.3099 193.5949,-46.169 200.5898,-46.4363"/>
</g>
<!-- 219 -->
<g id="node17" class="node">
<title>219</title>
<ellipse fill="none" stroke="#000000" cx="157" cy="-90" rx="27" ry="18"/>
<text text-anchor="middle" x="157" y="-86.3" font-family="Times,serif" font-size="14.00" fill="#000000">219</text>
</g>
<!-- 199&#45;&gt;219 -->
<g id="edge8" class="edge">
<title>199&#45;&gt;219</title>
<path fill="none" stroke="#000000" d="M178.222,-144.5708C175.0128,-136.3187 171.1065,-126.2738 167.5242,-117.0623"/>
<polygon fill="#000000" stroke="#000000" points="170.6992,-115.5697 163.8126,-107.5182 164.1752,-118.1069 170.6992,-115.5697"/>
</g>
<!-- 76 -->
<g id="node7" class="node">
<title>76</title>
<ellipse fill="none" stroke="#000000" cx="122" cy="-450" rx="27" ry="18"/>
<text text-anchor="middle" x="122" y="-446.3" font-family="Times,serif" font-size="14.00" fill="#000000">76</text>
</g>
<!-- 114 -->
<g id="node11" class="node">
<title>114</title>
<ellipse fill="none" stroke="#000000" cx="130" cy="-378" rx="27" ry="18"/>
<text text-anchor="middle" x="130" y="-374.3" font-family="Times,serif" font-size="14.00" fill="#000000">114</text>
</g>
<!-- 76&#45;&gt;114 -->
<g id="edge13" class="edge">
<title>76&#45;&gt;114</title>
<path fill="none" stroke="#000000" d="M124.0187,-431.8314C124.8743,-424.131 125.8917,-414.9743 126.8426,-406.4166"/>
<polygon fill="#000000" stroke="#000000" points="130.3283,-406.7386 127.9541,-396.4133 123.3711,-405.9656 130.3283,-406.7386"/>
</g>
<!-- 109 -->
<g id="node8" class="node">
<title>109</title>
<ellipse fill="none" stroke="#000000" cx="194" cy="-450" rx="27" ry="18"/>
<text text-anchor="middle" x="194" y="-446.3" font-family="Times,serif" font-size="14.00" fill="#000000">109</text>
</g>
<!-- 109&#45;&gt;258 -->
<g id="edge22" class="edge">
<title>109&#45;&gt;258</title>
<path fill="none" stroke="#0000ff" d="M190.0607,-432.1871C185.5893,-413.614 177.4066,-383.9297 166,-360 161.2003,-349.9308 154.729,-339.5737 148.5968,-330.6572"/>
<polygon fill="#0000ff" stroke="#0000ff" points="151.2954,-328.4124 142.6521,-322.285 145.5879,-332.465 151.2954,-328.4124"/>
</g>
<!-- 109&#45;&gt;114 -->
<g id="edge15" class="edge">
<title>109&#45;&gt;114</title>
<path fill="none" stroke="#ff0000" d="M180.113,-434.3771C171.4747,-424.659 160.2107,-411.987 150.5503,-401.1191"/>
<polygon fill="#ff0000" stroke="#ff0000" points="153.1196,-398.7413 143.8599,-393.5924 147.8877,-403.3918 153.1196,-398.7413"/>
</g>
<!-- 127 -->
<g id="node19" class="node">
<title>127</title>
<ellipse fill="none" stroke="#000000" cx="223" cy="-306" rx="27" ry="18"/>
<text text-anchor="middle" x="223" y="-302.3" font-family="Times,serif" font-size="14.00" fill="#000000">127</text>
</g>
<!-- 109&#45;&gt;127 -->
<g id="edge24" class="edge">
<title>109&#45;&gt;127</title>
<path fill="none" stroke="#0000ff" d="M197.6142,-432.0535C202.5636,-407.4774 211.5005,-363.1008 217.3415,-334.0974"/>
<polygon fill="#0000ff" stroke="#0000ff" points="220.797,-334.6669 219.3402,-324.1727 213.9348,-333.2849 220.797,-334.6669"/>
</g>
<!-- 15&#45;&gt;289 -->
<g id="edge11" class="edge">
<title>15&#45;&gt;289</title>
<path fill="none" stroke="#000000" d="M58,-143.8314C58,-136.131 58,-126.9743 58,-118.4166"/>
<polygon fill="#000000" stroke="#000000" points="61.5001,-118.4132 58,-108.4133 54.5001,-118.4133 61.5001,-118.4132"/>
</g>
<!-- 175 -->
<g id="node10" class="node">
<title>175</title>
<ellipse fill="none" stroke="#000000" cx="240" cy="-234" rx="27" ry="18"/>
<text text-anchor="middle" x="240" y="-230.3" font-family="Times,serif" font-size="14.00" fill="#000000">175</text>
</g>
<!-- 175&#45;&gt;199 -->
<g id="edge16" class="edge">
<title>175&#45;&gt;199</title>
<path fill="none" stroke="#000000" d="M227.5196,-217.6621C220.4876,-208.4564 211.5653,-196.7764 203.7117,-186.4953"/>
<polygon fill="#000000" stroke="#000000" points="206.2828,-184.0953 197.431,-178.2733 200.72,-188.3446 206.2828,-184.0953"/>
</g>
<!-- 184 -->
<g id="node16" class="node">
<title>184</title>
<ellipse fill="none" stroke="#000000" cx="257" cy="-162" rx="27" ry="18"/>
<text text-anchor="middle" x="257" y="-158.3" font-family="Times,serif" font-size="14.00" fill="#000000">184</text>
</g>
<!-- 175&#45;&gt;184 -->
<g id="edge3" class="edge">
<title>175&#45;&gt;184</title>
<path fill="none" stroke="#000000" d="M238.3374,-215.8314C239.479,-207.5985 241.6188,-197.7011 244.164,-188.6507"/>
<polygon fill="#000000" stroke="#000000" points="247.5606,-189.5142 247.1782,-178.9263 240.8744,-187.4417 247.5606,-189.5142"/>
</g>
<!-- 114&#45;&gt;258 -->
<g id="edge6" class="edge">
<title>114&#45;&gt;258</title>
<path fill="none" stroke="#000000" d="M130,-359.8314C130,-352.131 130,-342.9743 130,-334.4166"/>
<polygon fill="#000000" stroke="#000000" points="133.5001,-334.4132 130,-324.4133 126.5001,-334.4133 133.5001,-334.4132"/>
</g>
<!-- 114&#45;&gt;127 -->
<g id="edge18" class="edge">
<title>114&#45;&gt;127</title>
<path fill="none" stroke="#000000" d="M147.9313,-364.1177C161.8264,-353.3602 181.2781,-338.3009 196.8991,-326.2072"/>
<polygon fill="#000000" stroke="#000000" points="199.3591,-328.729 205.1237,-319.8397 195.0738,-323.1939 199.3591,-328.729"/>
</g>
<!-- 20 -->
<g id="node12" class="node">
<title>20</title>
<ellipse fill="none" stroke="#ff0000" cx="230" cy="-594" rx="27" ry="18"/>
<text text-anchor="middle" x="230" y="-590.3" font-family="Times,serif" font-size="14.00" fill="#000000">20</text>
</g>
<!-- 22&#45;&gt;76 -->
<g id="edge7" class="edge">
<title>22&#45;&gt;76</title>
<path fill="none" stroke="#000000" d="M149.2854,-504.5708C145.0403,-496.0807 139.8464,-485.6929 135.1337,-476.2674"/>
<polygon fill="#000000" stroke="#000000" points="138.237,-474.6477 130.6343,-467.2687 131.976,-477.7782 138.237,-474.6477"/>
</g>
<!-- 22&#45;&gt;109 -->
<g id="edge5" class="edge">
<title>22&#45;&gt;109</title>
<path fill="none" stroke="#000000" d="M166.7146,-504.5708C170.9597,-496.0807 176.1536,-485.6929 180.8663,-476.2674"/>
<polygon fill="#000000" stroke="#000000" points="184.024,-477.7782 185.3657,-467.2687 177.763,-474.6477 184.024,-477.7782"/>
</g>
<!-- 184&#45;&gt;175 -->
<g id="edge10" class="edge">
<title>184&#45;&gt;175</title>
<path fill="none" stroke="#000000" d="M258.6583,-180.1992C257.52,-188.3949 255.3941,-198.2356 252.8647,-207.247"/>
<polygon fill="#000000" stroke="#000000" points="249.4789,-206.3493 249.8687,-216.937 256.1665,-208.4171 249.4789,-206.3493"/>
</g>
<!-- 219&#45;&gt;244 -->
<g id="edge4" class="edge">
<title>219&#45;&gt;244</title>
<path fill="none" stroke="#ff0000" d="M166.7164,-72.937C171.6693,-64.2393 177.7961,-53.4799 183.3113,-43.7948"/>
<polygon fill="#ff0000" stroke="#ff0000" points="186.4463,-45.3623 188.3533,-34.9405 180.3634,-41.8984 186.4463,-45.3623"/>
</g>
<!-- 127&#45;&gt;199 -->
<g id="edge21" class="edge">
<title>127&#45;&gt;199</title>
<path fill="none" stroke="#0000ff" d="M216.0742,-288.187C212.1822,-277.7494 207.4322,-264.2494 204,-252 198.2642,-231.5291 193.3558,-208.0109 189.9655,-190.1505"/>
<polygon fill="#0000ff" stroke="#0000ff" points="193.3661,-189.2923 188.1034,-180.097 186.4832,-190.5672 193.3661,-189.2923"/>
</g>
<!-- 127&#45;&gt;175 -->
<g id="edge9" class="edge">
<title>127&#45;&gt;175</title>
<path fill="none" stroke="#ff0000" d="M227.2022,-288.2022C229.0821,-280.2406 231.3425,-270.6671 233.4371,-261.7957"/>
<polygon fill="#ff0000" stroke="#ff0000" points="236.8955,-262.3792 235.7872,-251.8425 230.0828,-260.7706 236.8955,-262.3792"/>
</g>
<!-- 127&#45;&gt;184 -->
<g id="edge23" class="edge">
<title>127&#45;&gt;184</title>
<path fill="none" stroke="#0000ff" d="M242.0291,-292.8531C254.2758,-283.1609 269.1411,-268.7801 276,-252 284.3996,-231.4504 278.074,-206.6796 270.5388,-188.3317"/>
<polygon fill="#0000ff" stroke="#0000ff" points="273.7032,-186.834 266.4372,-179.1233 267.3088,-189.6822 273.7032,-186.834"/>
</g>
</g>
</svg>
