<?xml version="1.0" encoding="UTF-8" standalone="no"?>
<!DOCTYPE svg PUBLIC "-//W3C//DTD SVG 1.1//EN"
 "http://www.w3.org/Graphics/SVG/1.1/DTD/svg11.dtd">
<!-- Generated by graphviz version 2.40.1 (20161225.0304)
 -->
<!-- Title: diff_Contract_0xfd4085e56a96787fb7acd9b49510f874c3d4afcb Pages: 1 -->
<svg width="350pt" height="764pt"
 viewBox="0.00 0.00 350.00 764.00" xmlns="http://www.w3.org/2000/svg" xmlns:xlink="http://www.w3.org/1999/xlink">
<g id="graph0" class="graph" transform="scale(1 1) rotate(0) translate(4 760)">
<title>diff_Contract_0xfd4085e56a96787fb7acd9b49510f874c3d4afcb</title>
<polygon fill="#ffffff" stroke="transparent" points="-4,4 -4,-760 346,-760 346,4 -4,4"/>
<!-- 0 -->
<g id="node1" class="node">
<title>0</title>
<ellipse fill="none" stroke="#000000" cx="266" cy="-738" rx="27" ry="18"/>
<text text-anchor="middle" x="266" y="-734.3" font-family="Times,serif" font-size="14.00" fill="#000000">0</text>
</g>
<!-- 13 -->
<g id="node2" class="node">
<title>13</title>
<ellipse fill="none" stroke="#000000" cx="203" cy="-666" rx="27" ry="18"/>
<text text-anchor="middle" x="203" y="-662.3" font-family="Times,serif" font-size="14.00" fill="#000000">13</text>
</g>
<!-- 0&#45;&gt;13 -->
<g id="edge21" class="edge">
<title>0&#45;&gt;13</title>
<path fill="none" stroke="#000000" d="M252.3299,-722.3771C243.8266,-712.659 232.7387,-699.987 223.2292,-689.1191"/>
<polygon fill="#000000" stroke="#000000" points="225.8625,-686.8135 216.6434,-681.5924 220.5944,-691.423 225.8625,-686.8135"/>
</g>
<!-- 52 -->
<g id="node12" class="node">
<title>52</title>
<ellipse fill="none" stroke="#000000" cx="315" cy="-450" rx="27" ry="18"/>
<text text-anchor="middle" x="315" y="-446.3" font-family="Times,serif" font-size="14.00" fill="#000000">52</text>
</g>
<!-- 0&#45;&gt;52 -->
<g id="edge19" class="edge">
<title>0&#45;&gt;52</title>
<path fill="none" stroke="#000000" d="M269.0652,-719.9843C277.3493,-671.2939 300.2326,-536.7961 310.2264,-478.0573"/>
<polygon fill="#000000" stroke="#000000" points="313.709,-478.4543 311.936,-468.0089 306.8082,-477.2801 313.709,-478.4543"/>
</g>
<!-- 30 -->
<g id="node7" class="node">
<title>30</title>
<ellipse fill="none" stroke="#000000" cx="203" cy="-594" rx="27" ry="18"/>
<text text-anchor="middle" x="203" y="-590.3" font-family="Times,serif" font-size="14.00" fill="#000000">30</text>
</g>
<!-- 13&#45;&gt;30 -->
<g id="edge4" class="edge">
<title>13&#45;&gt;30</title>
<path fill="none" stroke="#000000" d="M203,-647.8314C203,-640.131 203,-630.9743 203,-622.4166"/>
<polygon fill="#000000" stroke="#000000" points="206.5001,-622.4132 203,-612.4133 199.5001,-622.4133 206.5001,-622.4132"/>
</g>
<!-- 57 -->
<g id="node13" class="node">
<title>57</title>
<ellipse fill="none" stroke="#000000" cx="99" cy="-594" rx="27" ry="18"/>
<text text-anchor="middle" x="99" y="-590.3" font-family="Times,serif" font-size="14.00" fill="#000000">57</text>
</g>
<!-- 13&#45;&gt;57 -->
<g id="edge15" class="edge">
<title>13&#45;&gt;57</title>
<path fill="none" stroke="#000000" d="M183.9248,-652.7941C167.7987,-641.6298 144.4959,-625.4971 126.3779,-612.9539"/>
<polygon fill="#000000" stroke="#000000" points="128.1685,-609.9367 117.9543,-607.1222 124.184,-615.692 128.1685,-609.9367"/>
</g>
<!-- 145 -->
<g id="node3" class="node">
<title>145</title>
<ellipse fill="none" stroke="#000000" cx="243" cy="-450" rx="27" ry="18"/>
<text text-anchor="middle" x="243" y="-446.3" font-family="Times,serif" font-size="14.00" fill="#000000">145</text>
</g>
<!-- 176 -->
<g id="node10" class="node">
<title>176</title>
<ellipse fill="none" stroke="#000000" cx="243" cy="-378" rx="27" ry="18"/>
<text text-anchor="middle" x="243" y="-374.3" font-family="Times,serif" font-size="14.00" fill="#000000">176</text>
</g>
<!-- 145&#45;&gt;176 -->
<g id="edge5" class="edge">
<title>145&#45;&gt;176</title>
<path fill="none" stroke="#000000" d="M243,-431.8314C243,-424.131 243,-414.9743 243,-406.4166"/>
<polygon fill="#000000" stroke="#000000" points="246.5001,-406.4132 243,-396.4133 239.5001,-406.4133 246.5001,-406.4132"/>
</g>
<!-- 273 -->
<g id="node4" class="node">
<title>273</title>
<ellipse fill="none" stroke="#000000" cx="242" cy="-234" rx="27" ry="18"/>
<text text-anchor="middle" x="242" y="-230.3" font-family="Times,serif" font-size="14.00" fill="#000000">273</text>
</g>
<!-- 304 -->
<g id="node11" class="node">
<title>304</title>
<ellipse fill="none" stroke="#000000" cx="242" cy="-162" rx="27" ry="18"/>
<text text-anchor="middle" x="242" y="-158.3" font-family="Times,serif" font-size="14.00" fill="#000000">304</text>
</g>
<!-- 273&#45;&gt;304 -->
<g id="edge24" class="edge">
<title>273&#45;&gt;304</title>
<path fill="none" stroke="#ff0000" d="M242,-215.8314C242,-208.131 242,-198.9743 242,-190.4166"/>
<polygon fill="#ff0000" stroke="#ff0000" points="245.5001,-190.4132 242,-180.4133 238.5001,-190.4133 245.5001,-190.4132"/>
</g>
<!-- 337 -->
<g id="node18" class="node">
<title>337</title>
<ellipse fill="none" stroke="#000000" cx="314" cy="-162" rx="27" ry="18"/>
<text text-anchor="middle" x="314" y="-158.3" font-family="Times,serif" font-size="14.00" fill="#000000">337</text>
</g>
<!-- 273&#45;&gt;337 -->
<g id="edge12" class="edge">
<title>273&#45;&gt;337</title>
<path fill="none" stroke="#ff0000" d="M257.2693,-218.7307C267.197,-208.803 280.3153,-195.6847 291.4363,-184.5637"/>
<polygon fill="#ff0000" stroke="#ff0000" points="294.1564,-186.7933 298.7527,-177.2473 289.2067,-181.8436 294.1564,-186.7933"/>
</g>
<!-- 153 -->
<g id="node5" class="node">
<title>153</title>
<ellipse fill="none" stroke="#000000" cx="278" cy="-18" rx="27" ry="18"/>
<text text-anchor="middle" x="278" y="-14.3" font-family="Times,serif" font-size="14.00" fill="#000000">153</text>
</g>
<!-- 155 -->
<g id="node6" class="node">
<title>155</title>
<ellipse fill="none" stroke="#000000" cx="27" cy="-450" rx="27" ry="18"/>
<text text-anchor="middle" x="27" y="-446.3" font-family="Times,serif" font-size="14.00" fill="#000000">155</text>
</g>
<!-- 78 -->
<g id="node17" class="node">
<title>78</title>
<ellipse fill="none" stroke="#000000" cx="27" cy="-378" rx="27" ry="18"/>
<text text-anchor="middle" x="27" y="-374.3" font-family="Times,serif" font-size="14.00" fill="#000000">78</text>
</g>
<!-- 155&#45;&gt;78 -->
<g id="edge18" class="edge">
<title>155&#45;&gt;78</title>
<path fill="none" stroke="#000000" d="M27,-431.8314C27,-424.131 27,-414.9743 27,-406.4166"/>
<polygon fill="#000000" stroke="#000000" points="30.5001,-406.4132 27,-396.4133 23.5001,-406.4133 30.5001,-406.4132"/>
</g>
<!-- 41 -->
<g id="node8" class="node">
<title>41</title>
<ellipse fill="none" stroke="#000000" cx="243" cy="-522" rx="27" ry="18"/>
<text text-anchor="middle" x="243" y="-518.3" font-family="Times,serif" font-size="14.00" fill="#000000">41</text>
</g>
<!-- 30&#45;&gt;41 -->
<g id="edge2" class="edge">
<title>30&#45;&gt;41</title>
<path fill="none" stroke="#000000" d="M212.4794,-576.937C217.3115,-568.2393 223.2889,-557.4799 228.6696,-547.7948"/>
<polygon fill="#000000" stroke="#000000" points="231.7917,-549.3819 233.5886,-538.9405 225.6726,-545.9823 231.7917,-549.3819"/>
</g>
<!-- 106 -->
<g id="node20" class="node">
<title>106</title>
<ellipse fill="none" stroke="#000000" cx="171" cy="-522" rx="27" ry="18"/>
<text text-anchor="middle" x="171" y="-518.3" font-family="Times,serif" font-size="14.00" fill="#000000">106</text>
</g>
<!-- 30&#45;&gt;106 -->
<g id="edge22" class="edge">
<title>30&#45;&gt;106</title>
<path fill="none" stroke="#000000" d="M195.2537,-576.5708C191.5196,-568.1691 186.9596,-557.9091 182.8055,-548.5623"/>
<polygon fill="#000000" stroke="#000000" points="185.9348,-546.9853 178.675,-539.2687 179.5381,-549.8283 185.9348,-546.9853"/>
</g>
<!-- 41&#45;&gt;145 -->
<g id="edge17" class="edge">
<title>41&#45;&gt;145</title>
<path fill="none" stroke="#000000" d="M243,-503.8314C243,-496.131 243,-486.9743 243,-478.4166"/>
<polygon fill="#000000" stroke="#000000" points="246.5001,-478.4132 243,-468.4133 239.5001,-478.4133 246.5001,-478.4132"/>
</g>
<!-- 41&#45;&gt;52 -->
<g id="edge14" class="edge">
<title>41&#45;&gt;52</title>
<path fill="none" stroke="#000000" d="M258.2693,-506.7307C268.197,-496.803 281.3153,-483.6847 292.4363,-472.5637"/>
<polygon fill="#000000" stroke="#000000" points="295.1564,-474.7933 299.7527,-465.2473 290.2067,-469.8436 295.1564,-474.7933"/>
</g>
<!-- 170 -->
<g id="node9" class="node">
<title>170</title>
<ellipse fill="none" stroke="#000000" cx="99" cy="-378" rx="27" ry="18"/>
<text text-anchor="middle" x="99" y="-374.3" font-family="Times,serif" font-size="14.00" fill="#000000">170</text>
</g>
<!-- 127 -->
<g id="node23" class="node">
<title>127</title>
<ellipse fill="none" stroke="#000000" cx="99" cy="-306" rx="27" ry="18"/>
<text text-anchor="middle" x="99" y="-302.3" font-family="Times,serif" font-size="14.00" fill="#000000">127</text>
</g>
<!-- 170&#45;&gt;127 -->
<g id="edge1" class="edge">
<title>170&#45;&gt;127</title>
<path fill="none" stroke="#000000" d="M99,-359.8314C99,-352.131 99,-342.9743 99,-334.4166"/>
<polygon fill="#000000" stroke="#000000" points="102.5001,-334.4132 99,-324.4133 95.5001,-334.4133 102.5001,-334.4132"/>
</g>
<!-- 176&#45;&gt;273 -->
<g id="edge13" class="edge">
<title>176&#45;&gt;273</title>
<path fill="none" stroke="#000000" d="M239.2526,-360.0931C237.2534,-349.6241 235.0034,-336.1241 234,-324 232.6803,-308.0545 232.8244,-303.9568 234,-288 234.6267,-279.4935 235.8015,-270.2939 237.0616,-261.9399"/>
<polygon fill="#000000" stroke="#000000" points="240.5398,-262.3546 238.6685,-251.9264 233.6282,-261.2455 240.5398,-262.3546"/>
</g>
<!-- 187 -->
<g id="node14" class="node">
<title>187</title>
<ellipse fill="none" stroke="#000000" cx="270" cy="-306" rx="27" ry="18"/>
<text text-anchor="middle" x="270" y="-302.3" font-family="Times,serif" font-size="14.00" fill="#000000">187</text>
</g>
<!-- 176&#45;&gt;187 -->
<g id="edge8" class="edge">
<title>176&#45;&gt;187</title>
<path fill="none" stroke="#000000" d="M249.6742,-360.2022C252.7476,-352.0064 256.4616,-342.1024 259.8695,-333.0145"/>
<polygon fill="#000000" stroke="#000000" points="263.1685,-334.1853 263.4026,-323.593 256.6142,-331.7274 263.1685,-334.1853"/>
</g>
<!-- 342 -->
<g id="node19" class="node">
<title>342</title>
<ellipse fill="none" stroke="#000000" cx="278" cy="-90" rx="27" ry="18"/>
<text text-anchor="middle" x="278" y="-86.3" font-family="Times,serif" font-size="14.00" fill="#000000">342</text>
</g>
<!-- 304&#45;&gt;342 -->
<g id="edge3" class="edge">
<title>304&#45;&gt;342</title>
<path fill="none" stroke="#000000" d="M250.7146,-144.5708C254.9597,-136.0807 260.1536,-125.6929 264.8663,-116.2674"/>
<polygon fill="#000000" stroke="#000000" points="268.024,-117.7782 269.3657,-107.2687 261.763,-114.6477 268.024,-117.7782"/>
</g>
<!-- 65 -->
<g id="node15" class="node">
<title>65</title>
<ellipse fill="none" stroke="#000000" cx="99" cy="-522" rx="27" ry="18"/>
<text text-anchor="middle" x="99" y="-518.3" font-family="Times,serif" font-size="14.00" fill="#000000">65</text>
</g>
<!-- 57&#45;&gt;65 -->
<g id="edge23" class="edge">
<title>57&#45;&gt;65</title>
<path fill="none" stroke="#000000" d="M99,-575.8314C99,-568.131 99,-558.9743 99,-550.4166"/>
<polygon fill="#000000" stroke="#000000" points="102.5001,-550.4132 99,-540.4133 95.5001,-550.4133 102.5001,-550.4132"/>
</g>
<!-- 69 -->
<g id="node16" class="node">
<title>69</title>
<ellipse fill="none" stroke="#000000" cx="27" cy="-522" rx="27" ry="18"/>
<text text-anchor="middle" x="27" y="-518.3" font-family="Times,serif" font-size="14.00" fill="#000000">69</text>
</g>
<!-- 57&#45;&gt;69 -->
<g id="edge20" class="edge">
<title>57&#45;&gt;69</title>
<path fill="none" stroke="#000000" d="M83.7307,-578.7307C73.803,-568.803 60.6847,-555.6847 49.5637,-544.5637"/>
<polygon fill="#000000" stroke="#000000" points="51.7933,-541.8436 42.2473,-537.2473 46.8436,-546.7933 51.7933,-541.8436"/>
</g>
<!-- 187&#45;&gt;273 -->
<g id="edge9" class="edge">
<title>187&#45;&gt;273</title>
<path fill="none" stroke="#000000" d="M263.222,-288.5708C260.0128,-280.3187 256.1065,-270.2738 252.5242,-261.0623"/>
<polygon fill="#000000" stroke="#000000" points="255.6992,-259.5697 248.8126,-251.5182 249.1752,-262.1069 255.6992,-259.5697"/>
</g>
<!-- 69&#45;&gt;155 -->
<g id="edge10" class="edge">
<title>69&#45;&gt;155</title>
<path fill="none" stroke="#000000" d="M27,-503.8314C27,-496.131 27,-486.9743 27,-478.4166"/>
<polygon fill="#000000" stroke="#000000" points="30.5001,-478.4132 27,-468.4133 23.5001,-478.4133 30.5001,-478.4132"/>
</g>
<!-- 337&#45;&gt;342 -->
<g id="edge16" class="edge">
<title>337&#45;&gt;342</title>
<path fill="none" stroke="#000000" d="M305.2854,-144.5708C301.0403,-136.0807 295.8464,-125.6929 291.1337,-116.2674"/>
<polygon fill="#000000" stroke="#000000" points="294.237,-114.6477 286.6343,-107.2687 287.976,-117.7782 294.237,-114.6477"/>
</g>
<!-- 342&#45;&gt;153 -->
<g id="edge6" class="edge">
<title>342&#45;&gt;153</title>
<path fill="none" stroke="#ff0000" d="M278,-71.8314C278,-64.131 278,-54.9743 278,-46.4166"/>
<polygon fill="#ff0000" stroke="#ff0000" points="281.5001,-46.4132 278,-36.4133 274.5001,-46.4133 281.5001,-46.4132"/>
</g>
<!-- 114 -->
<g id="node21" class="node">
<title>114</title>
<ellipse fill="none" stroke="#000000" cx="171" cy="-450" rx="27" ry="18"/>
<text text-anchor="middle" x="171" y="-446.3" font-family="Times,serif" font-size="14.00" fill="#000000">114</text>
</g>
<!-- 106&#45;&gt;114 -->
<g id="edge7" class="edge">
<title>106&#45;&gt;114</title>
<path fill="none" stroke="#000000" d="M171,-503.8314C171,-496.131 171,-486.9743 171,-478.4166"/>
<polygon fill="#000000" stroke="#000000" points="174.5001,-478.4132 171,-468.4133 167.5001,-478.4133 174.5001,-478.4132"/>
</g>
<!-- 118 -->
<g id="node22" class="node">
<title>118</title>
<ellipse fill="none" stroke="#000000" cx="99" cy="-450" rx="27" ry="18"/>
<text text-anchor="middle" x="99" y="-446.3" font-family="Times,serif" font-size="14.00" fill="#000000">118</text>
</g>
<!-- 106&#45;&gt;118 -->
<g id="edge11" class="edge">
<title>106&#45;&gt;118</title>
<path fill="none" stroke="#000000" d="M155.7307,-506.7307C145.803,-496.803 132.6847,-483.6847 121.5637,-472.5637"/>
<polygon fill="#000000" stroke="#000000" points="123.7933,-469.8436 114.2473,-465.2473 118.8436,-474.7933 123.7933,-469.8436"/>
</g>
<!-- 118&#45;&gt;170 -->
<g id="edge25" class="edge">
<title>118&#45;&gt;170</title>
<path fill="none" stroke="#000000" d="M99,-431.8314C99,-424.131 99,-414.9743 99,-406.4166"/>
<polygon fill="#000000" stroke="#000000" points="102.5001,-406.4132 99,-396.4133 95.5001,-406.4133 102.5001,-406.4132"/>
</g>
<!-- 280 -->
<g id="node24" class="node">
<title>280</title>
<ellipse fill="none" stroke="#0000ff" cx="314" cy="-234" rx="27" ry="18"/>
<text text-anchor="middle" x="314" y="-230.3" font-family="Times,serif" font-size="14.00" fill="#000000">280</text>
</g>
<!-- 280&#45;&gt;304 -->
<g id="edge27" class="edge">
<title>280&#45;&gt;304</title>
<path fill="none" stroke="#0000ff" d="M298.7307,-218.7307C288.803,-208.803 275.6847,-195.6847 264.5637,-184.5637"/>
<polygon fill="#0000ff" stroke="#0000ff" points="266.7933,-181.8436 257.2473,-177.2473 261.8436,-186.7933 266.7933,-181.8436"/>
</g>
<!-- 280&#45;&gt;337 -->
<g id="edge26" class="edge">
<title>280&#45;&gt;337</title>
<path fill="none" stroke="#0000ff" d="M314,-215.8314C314,-208.131 314,-198.9743 314,-190.4166"/>
<polygon fill="#0000ff" stroke="#0000ff" points="317.5001,-190.4132 314,-180.4133 310.5001,-190.4133 317.5001,-190.4132"/>
</g>
</g>
</svg>
